<svg xmlns="http://www.w3.org/2000/svg" width="146.396" height="50.242" viewBox="0 0 146.396 50.242">
  <path id="Tracé_167" data-name="Tracé 167" d="M595.012,229.054H586.32c.116-.115.231-.224.348-.341.16-.063.283-.353.367-.865a16.86,16.86,0,0,0,.241-2.653c.509-.561.612-3.26.612-4.88q0-1.507-.133-2.926c-.088-.833-.256-2.013-.553-2.024-1.545-.063-3.089-.439-4.635-.508-.181-.007-.363-.011-.543-.011a21.046,21.046,0,0,0-3.986.467c-2.96.571-5.92,1.256-8.875,2.027-1.374.356-2.746.777-4.123,1.076-1.682.364-3.361.642-5.044.879-2.816.393-5.638.546-8.457.731a96.6,96.6,0,0,0-9.69,1.066c-2.991.506-5.98,1.18-8.967,1.823s-6,1.279-9,1.931c-3.076.665-6.155,1.159-9.233,1.654-1.557.253-3.117.327-4.676.486-1.475.151-2.952.19-4.427.268-2.905.153-5.81.246-8.715.354-5.859.213-11.718.558-17.577.907-2.786.168-5.571.353-8.357.539H454.029V231.7l-.712.149c-.386.083-.772.163-1.158.245-.352.074-.7.167-1.055.264a3.012,3.012,0,0,0-.743.349,4.522,4.522,0,0,0-.81.928,7.285,7.285,0,0,0-.328,1.726q-.131,1.381-.127,2.844c0,.978.04,1.925.127,2.846q.074.519.145,1.04.133.827.393.931a5.076,5.076,0,0,0,.921.81c.171-.068.3-.376.391-.924.034-.167.064-.348.09-.536.164-.015.328-.012.493-.012s.315,0,.473-.018c.354-.027.709-.059,1.063-.09l.836-.071v1.066c-.814.242-1.628.458-2.443.72q-.566.23-.863,2.039a35.254,35.254,0,0,0-.53,5.166c-.412-.014-.822-.03-1.233-.041-.287-.008-.345,1.8-.345,2.491s.057,2.477.345,2.488c.394.014.787.037,1.181.057q.049,2.35.266,4.6l.316,2.287q.3,1.808.863,2.038c2.211-.707,4.423-1.327,6.635-1.938a13.266,13.266,0,0,1,1.783-.493l1.661-.224c3.034-.406,6.068-.926,9.1-1.085,3.175-.168,6.351-.447,9.525-.476,3.24-.027,6.481-.077,9.72-.019q9.473.17,18.944.268c6.273.056,12.544.067,18.815-.044,3.113-.057,6.226-.327,9.338-.543,3.057-.209,6.11-.568,9.164-.984.67-.09,1.341-.27,2.011-.409.231-.048.461-.1.693-.151h46.033Z" transform="translate(-448.616 -214.847)" fill="#e1005c"/>
</svg>
