<?xml version="1.0" encoding="utf-8"?>
<!-- Generator: Adobe Illustrator 25.0.1, SVG Export Plug-In . SVG Version: 6.00 Build 0)  -->
<svg version="1.1" id="Calque_1" xmlns="http://www.w3.org/2000/svg" xmlns:xlink="http://www.w3.org/1999/xlink" x="0px" y="0px"
	 viewBox="0 0 208.4 208.4" style="enable-background:new 0 0 208.4 208.4;" xml:space="preserve">
<style type="text/css">
	.st0{fill:#008DD3;}
	.st1{enable-background:new    ;}
	.st2{fill:#FFFFFF;}
</style>
<g id="Groupe_360" transform="translate(3993.959 4567.009)">
	<circle id="Ellipse_16" class="st0" cx="-3889.8" cy="-4462.8" r="104.2"/>
	<g id="Groupe_359" transform="translate(-3964.76 -4418.279)">
		<g class="st1">
			<path class="st2" d="M20.6,14.3c-0.6-0.2-1.1-0.6-1.4-1.1l1.5-1.8c0.5,0.7,1.1,1,1.7,1c0.4,0,0.7-0.1,0.9-0.4
				c0.2-0.2,0.3-0.6,0.3-1.1V6.8h-3.4V4.7h6.1v6.2c0,1.3-0.3,2.2-1,2.9s-1.6,1-2.8,1C21.9,14.7,21.2,14.6,20.6,14.3z"/>
			<path class="st2" d="M36.8,12.3v2.1h-7.9V4.7h7.7v2.1h-4.9v1.7H36v2.1h-4.4v1.8H36.8z"/>
			<path class="st2" d="M43.8,4.7h4.6c1.1,0,2,0.2,2.9,0.6c0.8,0.4,1.5,1,1.9,1.7c0.5,0.7,0.7,1.6,0.7,2.6c0,1-0.2,1.9-0.7,2.6
				c-0.5,0.7-1.1,1.3-1.9,1.7c-0.8,0.4-1.8,0.6-2.9,0.6h-4.6V4.7z M48.3,12.3c0.8,0,1.5-0.2,2-0.7c0.5-0.5,0.8-1.1,0.8-2
				c0-0.8-0.3-1.5-0.8-2c-0.5-0.5-1.2-0.7-2-0.7h-1.8v5.4H48.3z"/>
			<path class="st2" d="M63.9,12.3v2.1h-7.9V4.7h7.7v2.1h-4.9v1.7h4.4v2.1h-4.4v1.8H63.9z M60.4,1.8h2.7l-2.6,2.1h-1.9L60.4,1.8z"/>
			<path class="st2" d="M68.3,14c-0.8-0.4-1.5-1-1.9-1.8c-0.5-0.8-0.7-1.7-0.7-2.6c0-1,0.2-1.9,0.7-2.6c0.5-0.8,1.1-1.4,1.9-1.8
				c0.8-0.4,1.7-0.7,2.8-0.7c0.9,0,1.7,0.2,2.4,0.5s1.3,0.8,1.8,1.4l-1.8,1.6c-0.6-0.8-1.4-1.1-2.3-1.1c-0.5,0-1,0.1-1.4,0.4
				c-0.4,0.2-0.7,0.6-1,1c-0.2,0.4-0.3,0.9-0.3,1.5c0,0.6,0.1,1,0.3,1.5c0.2,0.4,0.6,0.8,1,1c0.4,0.2,0.9,0.4,1.4,0.4
				c0.9,0,1.7-0.4,2.3-1.1l1.8,1.6c-0.5,0.6-1.1,1.1-1.8,1.4s-1.5,0.5-2.4,0.5C70,14.7,69.1,14.5,68.3,14z"/>
			<path class="st2" d="M79.1,14c-0.8-0.4-1.5-1-1.9-1.8c-0.5-0.8-0.7-1.6-0.7-2.6c0-1,0.2-1.8,0.7-2.6c0.5-0.8,1.1-1.4,1.9-1.8
				s1.8-0.7,2.8-0.7s2,0.2,2.8,0.7s1.5,1,1.9,1.8c0.5,0.8,0.7,1.6,0.7,2.6c0,1-0.2,1.8-0.7,2.6c-0.5,0.8-1.1,1.4-1.9,1.8
				s-1.8,0.7-2.8,0.7S80,14.5,79.1,14z M83.3,12c0.4-0.2,0.7-0.6,1-1s0.3-0.9,0.3-1.5c0-0.5-0.1-1-0.3-1.5c-0.2-0.4-0.6-0.8-1-1
				s-0.8-0.4-1.3-0.4c-0.5,0-0.9,0.1-1.3,0.4c-0.4,0.2-0.7,0.6-1,1c-0.2,0.4-0.4,0.9-0.4,1.5c0,0.6,0.1,1,0.4,1.5s0.6,0.8,1,1
				c0.4,0.2,0.8,0.4,1.3,0.4C82.4,12.4,82.9,12.3,83.3,12z"/>
			<path class="st2" d="M90.7,13.5c-0.8-0.8-1.2-1.9-1.2-3.4V4.7h2.8V10c0,1.6,0.6,2.4,1.9,2.4c1.2,0,1.8-0.8,1.8-2.4V4.7h2.7v5.4
				c0,1.5-0.4,2.6-1.2,3.4c-0.8,0.8-1.9,1.2-3.4,1.2S91.5,14.3,90.7,13.5z"/>
			<path class="st2" d="M111.2,4.7l-4.2,9.8h-2.7l-4.2-9.8h3l2.7,6.4l2.7-6.4H111.2z"/>
			<path class="st2" d="M116.7,11.9h-1.5v2.6h-2.8V4.7h4.5c0.9,0,1.7,0.1,2.3,0.4s1.2,0.7,1.5,1.3s0.5,1.2,0.5,1.9
				c0,0.7-0.2,1.3-0.5,1.9c-0.3,0.5-0.8,0.9-1.4,1.2l2.1,3.1h-3L116.7,11.9z M118.1,7.2c-0.3-0.3-0.7-0.4-1.3-0.4h-1.5v2.9h1.5
				c0.6,0,1-0.1,1.3-0.4c0.3-0.2,0.4-0.6,0.4-1.1C118.5,7.8,118.3,7.5,118.1,7.2z"/>
			<path class="st2" d="M131.4,12.3v2.1h-7.9V4.7h7.7v2.1h-4.9v1.7h4.4v2.1h-4.4v1.8H131.4z"/>
			<path class="st2" d="M19.4,15.9v-0.7h113.2v0.7H19.4z"/>
		</g>
		<path id="Icon_awesome-long-arrow-alt-right" class="st2" d="M9.8,8.6h-9c-0.2,0-0.4,0.2-0.4,0.4v1.7c0,0.2,0.2,0.4,0.4,0.4
			c0,0,0,0,0,0h9v1.4c0,0.4,0.3,0.7,0.7,0.7c0.2,0,0.4-0.1,0.5-0.2l2.6-2.6c0.3-0.3,0.3-0.7,0-1c0,0,0,0,0,0L11,6.7
			c-0.3-0.3-0.7-0.3-1,0C9.9,6.8,9.8,7,9.8,7.2V8.6z"/>
		<path id="Icon_awesome-long-arrow-alt-right-2" class="st2" d="M141.4,8.6h9c0.2,0,0.4,0.2,0.4,0.4v0v1.7c0,0.2-0.2,0.4-0.4,0.4h0
			h-9v1.4c0,0.4-0.3,0.7-0.7,0.7c-0.2,0-0.4-0.1-0.5-0.2l-2.6-2.6c-0.3-0.3-0.3-0.7,0-1c0,0,0,0,0,0l2.6-2.6c0.3-0.3,0.7-0.3,1,0
			c0.1,0.1,0.2,0.3,0.2,0.5V8.6z"/>
	</g>
</g>
<g id="Groupe_370" transform="translate(-39.556 -46.38)">
	<g id="Groupe_369">
		<path id="Tracé_210" class="st2" d="M80.8,106.7l-2.4,3.9l-9.1-1.3l-0.1,0.2l7.1,4.4l-2.3,3.6L58.7,108l2.5-4l9.2,1.6l0.1-0.2
			l-7.4-4.6l2.3-3.7L80.8,106.7z"/>
		<path id="Tracé_211" class="st2" d="M70.5,93.7c-0.4-1.8,0.3-3.6,1.9-5.4s3.4-2.7,5.1-2.5c1.8,0.2,3.9,1.3,6.3,3.5
			c2.4,2.2,3.8,4.2,4.2,6c0.4,1.8-0.2,3.7-1.8,5.5c-1.6,1.8-3.4,2.6-5.2,2.4c-1.9-0.2-4-1.4-6.4-3.6S70.9,95.5,70.5,93.7z
			 M77.6,90.8c-0.7-0.2-1.4,0-1.8,0.6c-0.5,0.5-0.7,1.2-0.4,1.8c0.7,1,1.5,1.9,2.4,2.7l0.5,0.5c0.9,0.9,1.9,1.6,3,2.2
			c0.7,0.2,1.4-0.1,1.8-0.6c0.5-0.4,0.7-1.1,0.5-1.8c-0.6-1-1.4-1.9-2.3-2.6l-0.7-0.6C79.7,92.1,78.7,91.4,77.6,90.8L77.6,90.8z"/>
		<path id="Tracé_212" class="st2" d="M92.8,87.9c0.4,0.1,0.9-0.1,1.2-0.4c0.4-0.2,0.6-0.6,0.7-1c-0.1-0.5-0.3-0.9-0.6-1.3
			l-7.4-9.6l3.8-3l7.6,9.8c1.1,1.2,1.7,2.9,1.5,4.6c-0.5,1.7-1.5,3.1-3,4.1c-1.3,1.2-2.9,1.8-4.6,1.8c-1.6-0.3-3.1-1.2-4-2.6
			l-7.6-9.8l3.9-3l7.4,9.6C92,87.5,92.4,87.8,92.8,87.9z"/>
		<path id="Tracé_213" class="st2" d="M105.9,64.2l5.7,17.4L105,85L93.9,70.5l4.7-2.5l6.8,9.8l0.4-0.2l-4.4-11L105.9,64.2z"/>
		<path id="Tracé_214" class="st2" d="M124.1,77l-9,3l-5.7-17.1l9.2-3.1l1.1,4.3l-4.4,1.5l0.9,2.6l3.8-1.3l1.2,3.6l-3.8,1.3l1,2.8
			l4.7-1.6L124.1,77z"/>
		<path id="Tracé_215" class="st2" d="M137.6,74.6l-4.6,0.8l-1-2.7l-3.3,0.6l-0.1,2.9l-4.4,0.7l0.2-18.3l7.1-1.2L137.6,74.6z
			 M130.9,69.4l-2-6.2l-0.2,0l0.1,6.5L130.9,69.4z"/>
		<path id="Tracé_216" class="st2" d="M143.5,70.1c0.3,0.3,0.7,0.5,1.2,0.4c0.4,0.1,0.9-0.1,1.2-0.4c0.3-0.4,0.4-0.9,0.3-1.4
			l0.1-12.1l4.8,0L151,69.1c0.1,1.7-0.5,3.3-1.7,4.5c-1.4,1-3.1,1.5-4.9,1.4c-1.7,0.1-3.4-0.4-4.8-1.4c-1.1-1.2-1.7-2.8-1.5-4.5
			l0.1-12.4l4.9,0l-0.1,12.1C143.1,69.2,143.2,69.7,143.5,70.1z"/>
		<path id="Tracé_217" class="st2" d="M167.4,78.3l-9.2-2.3l4.5-17.5l9.4,2.4l-1.4,4.2l-4.5-1.2l-0.7,2.6l3.9,1l-0.9,3.7l-3.9-1
			l-0.7,2.9l4.8,1.2L167.4,78.3z"/>
		<path id="Tracé_218" class="st2" d="M180.2,83.7l-4.2-1.9l0.1-9.1l-0.2-0.1l-3.4,7.7l-3.9-1.7l7.3-16.5l4.4,1.9l-0.3,9.3l0.2,0.1
			l3.5-7.9l3.9,1.7L180.2,83.7z"/>
		<path id="Tracé_219" class="st2" d="M195.8,73.6c1.9,0.2,3.7,1,5.3,2.1c1.3,0.8,2.1,2.1,2.4,3.6c0.1,1.5-0.3,2.9-1.3,4.1
			c-0.8,1.2-2,2.2-3.3,2.9c-1.7,0.7-3.5,1.2-5.3,1.6l3.3,2.5l-2.5,3.3l-8.2-6.3l1.6-2.5c2.6-0.5,4.5-0.9,5.7-1.2
			c0.9-0.2,1.9-0.6,2.7-1.1c0.6-0.3,1-0.7,1.4-1.2c0.3-0.4,0.5-0.8,0.5-1.3c0-0.4-0.2-0.8-0.6-1c-0.3-0.3-0.7-0.5-1.1-0.6
			c-0.9-0.3-1.8-0.6-2.7-0.7L195.8,73.6z"/>
		<path id="Tracé_220" class="st2" d="M212.3,93.3c-1.7,2.1-3.6,4-5.7,5.6c-0.8,0.6-1.7,1.1-2.7,1.4c-1.8,0.5-3.5-0.1-5.2-1.8
			c-1.7-1.7-2.2-3.5-1.7-5.2c0.3-1,0.8-1.9,1.4-2.7c0.8-1.1,1.7-2,2.7-3c2.3-2.3,4.3-3.6,6-4c1.6-0.4,3.3,0.2,4.9,1.9
			c1.7,1.8,2.3,3.5,1.7,5.2C213.4,91.6,212.9,92.5,212.3,93.3z M206.3,93.1l0.3-0.3c0.8-0.7,1.6-1.6,2.3-2.4
			c0.1-0.3,0.3-0.5,0.4-0.8c0.1-0.4,0-0.9-0.4-1.2c-0.3-0.3-0.7-0.5-1.2-0.4c-0.5,0.2-1,0.5-1.4,0.8c-0.7,0.6-1.4,1.2-1.9,1.8
			l-0.3,0.3c-0.9,0.8-1.8,1.7-2.5,2.7c-0.1,0.3-0.3,0.5-0.4,0.8c-0.2,0.5,0,1,0.4,1.3c0.4,0.4,1.1,0.5,1.6,0.1
			C204.4,95,205.4,94.1,206.3,93.1L206.3,93.1z"/>
		<path id="Tracé_221" class="st2" d="M216.8,92.8c1.8,0.8,3.3,2,4.4,3.5c1,1.2,1.4,2.7,1.3,4.2c-0.3,1.4-1.2,2.7-2.4,3.5
			c-1.2,0.9-2.5,1.5-4,1.8c-1.8,0.2-3.7,0.2-5.5,0l2.5,3.4l-3.4,2.4l-6.1-8.4l2.3-1.9c2.6,0.3,4.6,0.5,5.8,0.5c1,0,2,0,2.9-0.2
			c0.6-0.1,1.2-0.4,1.7-0.8c0.4-0.3,0.7-0.6,0.8-1.1c0.1-0.4,0-0.8-0.2-1.1c-0.2-0.3-0.5-0.6-0.9-0.9c-0.7-0.6-1.5-1.1-2.4-1.5
			L216.8,92.8z"/>
		<path id="Tracé_222" class="st2" d="M213,117.8l-2.3-4.1l11.7-6.5l-1-1.8l2.7-1.5l2.8,1.8l1.9,3.4L213,117.8z"/>
	</g>
</g>
</svg>
