<?xml version="1.0" encoding="UTF-8"?> <svg xmlns="http://www.w3.org/2000/svg" width="37.706" height="46.405" viewBox="0 0 37.706 46.405"><path id="Icon_awesome-running" data-name="Icon awesome-running" d="M24.654,8.7A4.351,4.351,0,1,0,20.3,4.351,4.351,4.351,0,0,0,24.654,8.7ZM10.3,28.775,8.963,31.9H2.9a2.9,2.9,0,0,0,0,5.8H9.92a4.341,4.341,0,0,0,4-2.637l.8-1.86-.967-.571A8.631,8.631,0,0,1,10.3,28.775Zm24.5-8.473H30.814l-2.362-4.826a8.7,8.7,0,0,0-5.6-4.617L16.41,8.942A8.664,8.664,0,0,0,9.083,10.5l-3.6,2.756a2.9,2.9,0,1,0,3.529,4.6l3.6-2.756a2.822,2.822,0,0,1,2.29-.557l1.332.4-3.4,7.921a5.816,5.816,0,0,0,2.384,7.279l7.7,4.547-2.49,7.952a2.9,2.9,0,1,0,5.535,1.733l2.868-9.16a4.369,4.369,0,0,0-1.961-4.93L21.329,27l2.838-7.1L26,23.665A4.378,4.378,0,0,0,29.912,26.1h4.894a2.9,2.9,0,1,0,0-5.8Z" fill="#fff"></path></svg> 