<?xml version="1.0" encoding="UTF-8"?> <!-- Generator: Adobe Illustrator 23.0.1, SVG Export Plug-In . SVG Version: 6.00 Build 0) --> <svg xmlns="http://www.w3.org/2000/svg" xmlns:xlink="http://www.w3.org/1999/xlink" version="1.1" id="Calque_1" x="0px" y="0px" viewBox="0 0 71.2 60.2" style="enable-background:new 0 0 71.2 60.2;" xml:space="preserve"> <style type="text/css"> .st0{fill:#FFFFFF;stroke:#FFFFFF;} </style> <g id="Groupe_226" transform="translate(0.505 0.687)"> <g id="Groupe_223" transform="translate(17.929 0)"> <path id="Tracé_181" class="st0" d="M17.3,12.4c-2.8,0-5-2.2-5-5s2.2-5,5-5c2.8,0,5,2.2,5,5C22.2,10.2,20,12.4,17.3,12.4z M17.3,4.1c-1.8,0-3.3,1.5-3.3,3.3c0,1.8,1.5,3.3,3.3,3.3c1.8,0,3.3-1.5,3.3-3.3C20.6,5.6,19.1,4.1,17.3,4.1z"></path> <path id="Tracé_182" class="st0" d="M10.8,58.9c-0.1,0-0.2,0-0.4,0c-1.9-0.2-3.3-1.9-3.1-3.8l2.4-23.6c0.1-5.3,0.1-11.5,0.3-13.3 L0.5,4.5c-0.9-1.4-0.6-3.2,0.7-4.2c0,0,0,0,0,0c1.4-0.9,3.2-0.6,4.1,0.8l4.2,6l0,0l4.4,6.3c2-1,4.4-1,6.5,0l8.6-12.2 c0.9-1.3,2.8-1.7,4.1-0.8c1.4,0.9,1.7,2.8,0.8,4.2c0,0,0,0,0,0l-9.6,13.6c0.2,1.8,0.3,8.1,0.3,13.3l2.4,23.6 c0.2,1.9-1.1,3.6-3,3.8c-1.9,0.2-3.6-1.1-3.8-3c0,0,0-0.1,0-0.1L18,32.9h-1.5l-2.4,22.9C14,57.6,12.5,58.9,10.8,58.9z M11.8,18.2 c-0.1,0.8-0.3,8.6-0.3,13.4c0,0,0,0.1,0,0.1L9,55.3c-0.1,1,0.6,1.8,1.6,1.9s1.8-0.6,1.9-1.6L14.9,32c0-0.4,0.4-0.8,0.8-0.8h3 c0.4,0,0.8,0.3,0.8,0.8L22,55.7c0.1,1,1,1.7,1.9,1.6c1-0.1,1.7-1,1.6-1.9l-2.4-23.7c0,0,0-0.1,0-0.1c0-4.8-0.2-12.6-0.3-13.4 c-0.1-0.2,0-0.5,0.1-0.7l9.7-13.9C33,3,32.9,2.1,32.3,1.7c0,0,0,0,0,0c-0.6-0.4-1.4-0.3-1.8,0.3l-9,12.8c-0.3,0.4-0.7,0.5-1.1,0.2 c-1.9-1.1-4.2-1.1-6.1,0c-0.4,0.2-0.9,0.1-1.1-0.2L4.1,2C3.7,1.5,2.9,1.3,2.3,1.7C1.6,2.1,1.5,2.9,1.9,3.5c0,0,0,0,0,0l9.7,13.9 C11.8,17.7,11.8,17.9,11.8,18.2L11.8,18.2z"></path> </g> <g id="Groupe_224" transform="translate(0 6.37)"> <path id="Tracé_183" class="st0" d="M15.4,11.2c-2.5,0-4.5-2-4.5-4.5s2-4.5,4.5-4.5s4.5,2,4.5,4.5C20,9.2,17.9,11.2,15.4,11.2z M15.4,3.8c-1.6,0-2.9,1.3-2.9,2.9c0,1.6,1.3,2.9,2.9,2.9s2.9-1.3,2.9-2.9C18.3,5.1,17,3.8,15.4,3.8z"></path> <path id="Tracé_184" class="st0" d="M21.2,52.6c-1.6,0-3-1.2-3.1-2.8L16,29.5h-1.1l-2.1,20.3c-0.2,1.7-1.7,3-3.4,2.8 c-1.7-0.2-3-1.7-2.8-3.4l2.2-21C8.7,23.4,8.8,18,9,16.3L0.5,4.1c-0.9-1.2-0.6-3,0.7-3.8c0,0,0,0,0,0C2.5-0.6,4.1-0.2,5,1l7.6,10.8 c1.8-0.8,3.9-0.8,5.7,0l3.9-5.6C22.5,5.8,23,5.7,23.4,6c0.4,0.3,0.5,0.8,0.2,1.2l-4.4,6.2c-0.3,0.4-0.7,0.5-1.1,0.2 c-1.6-1-3.7-1-5.3,0c-0.4,0.2-0.9,0.1-1.1-0.2l-8-11.4c-0.3-0.5-1-0.6-1.5-0.3C1.6,2,1.5,2.7,1.9,3.2c0,0,0,0,0,0l8.7,12.4 c0.1,0.2,0.2,0.5,0.1,0.7c-0.1,0.8-0.2,7.7-0.3,11.9c0,0,0,0.1,0,0.1L8.2,49.3c-0.1,0.8,0.5,1.5,1.3,1.6c0.8,0.1,1.5-0.5,1.6-1.3 l2.2-21c0-0.4,0.4-0.8,0.8-0.8h2.6c0.4,0,0.8,0.3,0.8,0.8l2.2,21c0.1,0.8,0.8,1.4,1.6,1.3c0.8-0.1,1.3-0.8,1.3-1.6l-2.2-21.1 c0,0,0-0.1,0-0.1c0-4.2-0.2-11.1-0.3-11.9c-0.1-0.2,0-0.5,0.1-0.7l4.1-5.8c0.3-0.4,0.8-0.5,1.2-0.2c0.4,0.3,0.5,0.8,0.2,1.2 c0,0,0,0,0,0l-3.9,5.6c0.2,1.7,0.2,7.2,0.3,11.8l2.2,21c0.2,1.7-1.1,3.3-2.8,3.4C21.4,52.6,21.3,52.6,21.2,52.6z"></path> </g> <g id="Groupe_225" transform="translate(43.996 6.37)"> <path id="Tracé_185" class="st0" d="M10.7,11.2c-2.5,0-4.5-2-4.5-4.5c0-2.5,2-4.5,4.5-4.5c2.5,0,4.5,2,4.5,4.5c0,0,0,0,0,0 C15.2,9.2,13.2,11.2,10.7,11.2z M10.7,3.8c-1.6,0-2.9,1.3-2.9,2.9c0,1.6,1.3,2.9,2.9,2.9c1.6,0,2.9-1.3,2.9-2.9 C13.6,5.1,12.3,3.8,10.7,3.8z"></path> <path id="Tracé_186" class="st0" d="M16.5,52.6c-1.6,0-3-1.2-3.1-2.8l-2.1-20.3h-1.1L8.1,49.7c-0.2,1.7-1.7,3-3.4,2.8 c-1.7-0.2-3-1.7-2.8-3.4l0,0l2.2-21C4,23.4,4.1,18,4.3,16.3l-4.1-5.9C-0.1,10,0,9.5,0.3,9.2C0.7,9,1.2,9,1.5,9.4c0,0,0,0,0,0 l4.3,6.1C5.9,15.8,6,16,5.9,16.3C5.8,17,5.7,23.9,5.6,28.1c0,0,0,0.1,0,0.1L3.5,49.3c-0.1,0.8,0.5,1.5,1.3,1.6s1.5-0.5,1.6-1.3 c0,0,0,0,0-0.1l2.2-21c0-0.4,0.4-0.8,0.8-0.8H12c0.4,0,0.8,0.3,0.8,0.8l2.2,21c0.1,0.8,0.8,1.4,1.6,1.3c0.8-0.1,1.4-0.8,1.3-1.6 l-2.2-21.1c0,0,0-0.1,0-0.1c0-4.2-0.2-11.1-0.3-11.9c-0.1-0.2,0-0.5,0.1-0.7l8.7-12.4C24.6,2.7,24.5,2,24,1.7c0,0,0,0,0,0 c-0.5-0.3-1.2-0.2-1.5,0.3l-8,11.4c-0.3,0.4-0.7,0.5-1.1,0.2c-1.6-1-3.7-1-5.3,0c-0.4,0.2-0.9,0.1-1.1-0.2L2.8,7.4 C2.5,7,2.6,6.5,3,6.3C3.4,6,3.9,6.1,4.1,6.5l3.7,5.3c1.8-0.8,3.9-0.8,5.7,0L21.2,1C22-0.2,23.7-0.6,25,0.3 c1.3,0.9,1.6,2.6,0.7,3.8c0,0,0,0,0,0l-8.5,12.1c0.2,1.7,0.2,7.2,0.3,11.8l2.2,21c0.2,1.7-1.1,3.3-2.8,3.4 C16.7,52.6,16.6,52.6,16.5,52.6z"></path> </g> </g> </svg> 