<?xml version="1.0" encoding="UTF-8"?> <!-- Generator: Adobe Illustrator 23.0.1, SVG Export Plug-In . SVG Version: 6.00 Build 0) --> <svg xmlns="http://www.w3.org/2000/svg" xmlns:xlink="http://www.w3.org/1999/xlink" version="1.1" id="Calque_1" x="0px" y="0px" viewBox="0 0 172.6 68.3" style="enable-background:new 0 0 172.6 68.3;" xml:space="preserve"> <style type="text/css"> .st0{fill:#FFFFFF;} </style> <g id="Groupe_82" transform="translate(-541.668 -35.643)"> <path id="Tracé_129" class="st0" d="M546.8,64.1c0.2-0.2,0.3-0.4,0.3-0.7v-0.9c0-0.3,0-0.6-0.2-0.8c-0.2-0.2-0.4-0.2-0.7-0.2 c-0.1,0-0.2,0-0.4,0s-0.3,0-0.3,0c-0.2,0-0.3,0-0.5-0.1c-0.1-0.1-0.2-0.3-0.2-0.4c0-0.4-0.1-0.8-0.1-1.1c0-0.6,0-2.1,0-4.4 c0-0.6,0-1.3,0-2v-0.2c0-0.2,0-0.4,0-0.6c0-0.1-0.1-0.2-0.2-0.2c0,0-0.1,0-0.1,0c-0.1,0-0.1,0-0.2,0c-0.1,0-0.2,0-0.4,0 c-0.2,0-0.4,0-0.6,0c-0.2,0-0.5,0-0.7,0l-0.1,0c-0.2,0-0.4,0-0.5,0.2c-0.1,0.3-0.2,0.6-0.1,0.9c0,0.5,0,1.1,0,2s0,1.4,0,1.7 c0,0.7,0,1.6,0,2.8s0,2,0,2.6v0.2c0,0.4,0,0.9,0.2,1.3c0.1,0.2,0.4,0.3,0.6,0.3c0.1,0,0.2,0,0.3,0s0.2,0,0.2,0h2.4c0,0,0.2,0,0.3,0 s0.3,0,0.4,0C546.3,64.3,546.6,64.3,546.8,64.1 M551.4,61.4c-0.1-0.1-0.1-0.2-0.1-0.5l0-1c0-0.3,0-0.4,0.1-0.5 c0.1-0.1,0.3-0.1,0.5-0.1c0.3,0,0.6,0,0.9,0c0.3,0,0.5,0,0.6,0c0.2,0,0.4-0.1,0.6-0.3c0.1-0.3,0.2-0.5,0.2-0.8v-0.5 c0-0.3,0-0.6-0.2-0.9c-0.2-0.2-0.5-0.2-0.8-0.2c-0.2,0-0.4,0-0.7,0s-0.5,0-0.6,0c-0.2,0-0.4,0-0.5-0.1c-0.1-0.2-0.2-0.4-0.1-0.7 v-0.2c0-0.2,0-0.4,0.1-0.5c0.1-0.1,0.3-0.2,0.4-0.1h0.9c0.1,0,0.2,0,0.4,0s0.3,0,0.3,0c0.3,0,0.5,0,0.7-0.2 c0.1-0.2,0.2-0.4,0.2-0.6v-0.1c0-0.3,0-0.6,0-0.9c0-0.2,0-0.5-0.2-0.7c-0.2-0.1-0.5-0.2-0.8-0.2c-0.1,0-0.2,0-0.3,0h-0.1 c0,0-0.1,0-0.2,0s-0.1,0-0.1,0h-3c-0.4,0-0.8,0-1.2,0.2c-0.2,0.2-0.3,0.4-0.2,0.6c0,0.1,0,0.2,0,0.2s0,0.1,0,0.2v8 c0,0.3,0,0.6-0.1,1.1c0,0.4-0.1,0.7-0.1,0.9c0,0.2,0.1,0.4,0.2,0.5c0.2,0.1,0.4,0.2,0.6,0.2c0.2,0,0.4,0,0.7,0s0.5,0,0.6,0 c0.5,0,1.1,0,1.8,0c0.7,0,1.1,0,1.4,0c0.3,0,0.6,0,0.8-0.2c0.2-0.4,0.3-0.9,0.2-1.3c0-0.4,0-0.7-0.2-1c-0.2-0.2-0.4-0.2-0.7-0.2 h-0.2c-0.5,0-1,0-1.4,0C551.7,61.5,551.5,61.5,551.4,61.4 M561.2,63.6c0.7-0.7,1.1-1.7,1-2.7c0-0.5-0.1-1-0.3-1.5 c-0.2-0.5-0.6-0.9-1-1.2c-0.2-0.2-0.6-0.5-1-0.8c-0.8-0.7-1.2-1.1-1.2-1.4c0-0.2,0.1-0.4,0.2-0.5c0.2-0.1,0.4-0.2,0.6-0.2 c0.2,0,0.5,0,0.7,0.1c0.2,0.1,0.5,0.1,0.7,0.1c0.2,0,0.4,0,0.5-0.1c0.1-0.2,0.2-0.4,0.1-0.7v-1.2c0-0.5-0.1-0.8-0.3-0.9 c-1.6-0.3-3.3-0.1-4.8,0.7c-0.7,0.6-1.1,1.5-1.1,2.5c0,0.6,0.1,1.2,0.4,1.7c0.3,0.6,0.7,1,1.2,1.4c0.2,0.1,0.4,0.3,0.7,0.6 c0.8,0.6,1.2,1,1.2,1.4c0,0.2-0.1,0.4-0.2,0.5c-0.2,0.1-0.5,0.2-0.7,0.2c-0.4,0-0.7-0.1-1.1-0.2c-0.2-0.1-0.4-0.2-0.6-0.2 c-0.2,0-0.5,0-0.7,0.2c-0.1,0.2-0.2,0.4-0.2,0.6v0.1l0,1.2v0.1c0,0.2,0,0.3,0.1,0.5c0.1,0.1,0.2,0.2,0.3,0.2c0.3,0.1,0.7,0.2,1,0.2 c0.5,0.1,1,0.1,1.4,0.1C559.2,64.6,560.3,64.3,561.2,63.6 M580.5,46c1.2-5.7,1.8-8.9,1.8-9.5c0-0.2-0.1-0.5-0.3-0.5 c-0.5-0.1-1-0.2-1.5-0.2H580c-0.3,0-0.9,0-1.7,0c-0.8,0-1.5,0-2,0c-0.3,0-0.7,0-1,0.1c-0.2,0.1-0.4,0.2-0.6,0.4 c-0.5,0.5-1.1,4.9-1.7,13.1c-0.2,2.9-0.4,5.2-0.6,6.9h-0.6c-0.4-5.8-0.8-10.5-1.1-13.9c-0.1-2-0.4-4-0.8-6 c-0.1-0.2-0.3-0.4-0.5-0.5c-0.3-0.1-0.7-0.2-1-0.1h-4.5c-0.5,0-1.1,0-1.6,0.2c-0.3,0.2-0.4,0.5-0.4,0.8c0,0.1,0.2,1,0.5,2.6 s0.7,3.1,1,4.6c0.4,1.9,0.9,4.5,1.7,7.7s1.3,5.5,1.5,6.9c0.1,0.5,0.2,1.1,0.3,1.9c0.4,2.6,1,3.9,1.9,3.9c0.1,0,0.3,0,0.6,0 s0.6,0,0.8,0c0.2,0,0.4,0,0.8,0c0.3,0,0.6,0,0.8,0c0.1,0,0.4,0,1,0c0.6,0,1.1,0,1.6,0c0.2,0,0.5,0,0.7,0.1c0.2,0,0.4,0,0.6,0.1 c1,0,1.8-1.6,2.3-4.8c0.3-1.7,0.5-3,0.7-4.1C579,52.9,579.7,49.8,580.5,46 M591,50.9c0-3.6,0.1-6.9,0.1-9.8v-2.4 c0-0.6,0-1.3-0.1-1.9c0-0.3-0.2-0.5-0.3-0.7c-0.2-0.2-0.5-0.3-0.7-0.3c-0.5-0.1-1-0.1-1.5-0.1h-2.1c-0.8-0.1-1.5,0-2.2,0.3 c-0.3,0.4-0.5,0.9-0.4,1.4v0.4c0.1,1.3,0.1,2.5,0.1,3.8c0,5.9-0.1,11.8-0.2,17.8c0,1.2,0,1.9,0,2.1c0,1.2,0.2,1.9,0.5,2.2 c0.8,0.4,1.6,0.5,2.5,0.4h1.6c0.8,0.1,1.7-0.1,2.4-0.5c0.4-0.5,0.6-1.2,0.5-1.9c0-0.6,0-1.4,0-2.3c0-1,0-1.6,0-2 C590.9,56.8,591,54.5,591,50.9 M606.1,47.2c0,0.7-0.2,1.4-0.7,1.9c-0.5,0.5-1.2,0.8-1.8,0.7c-0.6,0.1-1.3-0.1-1.7-0.5 c-0.3-0.3-0.5-1.3-0.5-2.8c0-0.5,0-1,0-1.7s0-1,0-1.1c0-0.6,0.1-1.1,0.5-1.6c0.4-0.4,1-0.6,1.5-0.5c0.8-0.1,1.7,0.3,2.2,1 C606,43.2,606.1,44.8,606.1,47.2 M614,64c0.3-0.2,0.4-0.5,0.4-0.8c0-0.1,0-0.2-0.1-0.3c0-0.1-0.1-0.3-0.2-0.4l-4.1-8.2 c1.2-0.5,2.2-1.5,2.6-2.8c0.6-1.9,0.9-4,0.8-6c0-3.5-0.6-6-1.9-7.5c-1.3-1.5-3.4-2.2-6.4-2.2c-0.7,0-1.6,0-2.7,0.1 s-1.9,0.1-2.3,0.1c-0.3,0-0.8,0-1.6,0s-1.4,0-2,0c-0.7-0.1-1.4,0.1-2,0.5c-0.4,0.6-0.6,1.3-0.5,2v23.5c-0.1,0.7,0,1.5,0.4,2.1 c0.4,0.3,0.9,0.5,1.4,0.4h4c0.4,0,0.8-0.1,1.1-0.4c0.3-0.3,0.4-0.8,0.4-1.2v-8.3h0.8l3.5,7.8c0.1,0.1,0.1,0.3,0.3,0.6 c0.2,0.9,1,1.5,1.9,1.5h3.9c0.2,0,0.4,0,0.5,0c0.2,0,0.3,0,0.5,0C613.3,64.3,613.7,64.2,614,64 M627.5,51.9c0,0.3-0.1,0.7-0.4,0.9 c-0.4,0.2-0.8,0.3-1.2,0.2c-0.4,0-0.9-0.1-1.3-0.2c-0.3-0.1-0.5-0.3-0.5-0.6l0.2-1.3l1.3-8l0.4,0l1.4,8.2c0,0.3,0.1,0.5,0.1,0.6 S627.5,51.8,627.5,51.9 M635.4,63.8c0.4-0.2,0.6-0.7,0.6-1.1c-0.1-1-0.3-2-0.6-3c-0.4-1.4-0.7-2.4-0.8-3.1 c-0.3-1.5-0.7-3.4-1.1-5.6c-0.4-2.2-0.7-3.7-0.8-4.4c-0.4-1.4-0.8-3.1-1.3-5.2c-0.3-1.7-0.8-3.4-1.4-5.1c-0.1-0.2-0.4-0.3-0.6-0.4 c-0.4-0.1-0.8-0.1-1.2-0.1h-5.6c-0.9,0-1.5,1.1-2,3.3v0c-0.2,1.2-0.6,2.9-1,5.2s-1,4.7-1.6,7.3c-0.1,0.5-0.2,1-0.2,1.6 c0,0.5-0.1,1-0.2,1.5l-1.4,5.7c0,0.2-0.1,0.5-0.2,0.8c-0.2,0.6-0.3,1.3-0.4,1.9c0,0.3,0.1,0.7,0.4,0.9c0.4,0.2,0.9,0.3,1.3,0.3h4.2 c0.6,0.1,1.2-0.1,1.7-0.5c0.4-0.6,0.5-1.2,0.5-1.9c0-0.1,0-0.4,0-0.7s0-0.5,0-0.7c0-0.4,0.3-0.8,0.7-0.9c0.6-0.2,1.3-0.4,1.9-0.3 c0.5,0,0.9,0.1,1.3,0.3c0.3,0.3,0.6,0.6,0.6,1.1c0.1,0.4,0.2,0.9,0.2,1.3c0,0.5,0.1,0.9,0.2,1.4c0.1,0.3,0.3,0.5,0.5,0.7 c0.2,0.2,0.5,0.3,0.8,0.3h4C634.4,64.2,634.9,64.1,635.4,63.8 M648.2,52.6c0.1,1.6-0.1,3.2-0.5,4.7c-0.4,0.7-1.1,1.1-1.9,1 c-0.5,0-0.9-0.1-1.2-0.4c-0.3-0.4-0.4-0.9-0.4-1.4c0-0.1,0-0.2,0-0.4c0-0.2,0-0.3,0-0.4l0-9.2c0-0.2,0-0.5,0-1.2c0-0.6,0-1.2,0-1.7 c0-0.4,0.1-0.8,0.3-1.1c0.3-0.3,0.7-0.4,1.1-0.3c0.9-0.1,1.8,0.4,2.1,1.3c0.4,0.9,0.5,3.1,0.5,6.6L648.2,52.6z M653.9,61.2 c1.4-2.1,2.1-5.2,2.1-9.5c0-5.9-0.7-10.1-2.2-12.4c-1.5-2.3-4-3.5-7.6-3.5H646l-3.4,0.1c-0.6,0-1.2,0-1.9,0s-1.1,0-1.2,0 c-0.7-0.1-1.3,0.1-1.9,0.4c-0.4,0.3-0.6,0.8-0.6,1.3c0,0.1,0,0.3,0,0.8c0.1,3.3,0.2,6.8,0.2,10.4c0,3.6,0,7.1-0.1,10.6 c0,0.6,0,0.9,0,1v0.4c0,1.7,0.1,2.7,0.4,3c0.5,0.4,1.2,0.6,1.8,0.5c1.1,0,2.3,0,3.4-0.1c0.2,0,0.4,0,0.4,0l3,0c0.1,0,0.3,0,0.6,0 s0.6,0,0.8,0C650.1,64.4,652.5,63.3,653.9,61.2 M666.4,57.2c-0.2-0.2-0.3-0.6-0.3-1.2l0-2.3c0-0.6,0.1-1,0.3-1.1 c0.3-0.2,0.7-0.2,1.1-0.2c0.6,0,1.4,0,2.2,0.1c0.8,0.1,1.3,0.1,1.5,0.1c0.5,0,1.1-0.2,1.4-0.6c0.3-0.6,0.5-1.3,0.5-2v-1.2 c0.1-0.8-0.1-1.5-0.5-2.2c-0.6-0.4-1.2-0.5-1.9-0.5c-0.5,0-1,0-1.7,0.1s-1.1,0.1-1.4,0.1c-0.5,0.1-0.9-0.1-1.3-0.3 c-0.3-0.5-0.4-1.1-0.3-1.6v-0.5c0-0.4,0.1-0.9,0.3-1.2c0.3-0.3,0.7-0.4,1-0.3h2.1c0.2,0,0.5,0,0.9,0c0.4,0,0.6,0,0.8,0 c0.6,0.1,1.2-0.1,1.8-0.4c0.4-0.4,0.5-1,0.5-1.5v-0.3c0-0.7,0-1.4,0-2.1c0.1-0.6-0.1-1.2-0.5-1.6c-0.6-0.4-1.2-0.5-1.9-0.4 c-0.2,0-0.5,0-0.7,0H670c-0.1,0-0.2,0-0.4,0c-0.2,0-0.3,0-0.3,0h-7.1c-1-0.1-1.9,0-2.8,0.4c-0.4,0.4-0.6,1-0.6,1.5 c0,0.2,0,0.4,0,0.6c0,0.2,0,0.3,0,0.4v19.2c0,0.7-0.1,1.5-0.2,2.6s-0.2,1.8-0.2,2.2c0,0.5,0.2,0.9,0.6,1.2c0.4,0.3,1,0.5,1.5,0.4 c0.4,0,1,0,1.7-0.1c0.7-0.1,1.2-0.1,1.5-0.1c1.2,0,2.6,0,4.2,0.1c1.7,0.1,2.8,0.1,3.3,0.1c0.7,0.1,1.4-0.1,1.9-0.5 c0.3-0.4,0.5-1.4,0.5-3.2c0.1-0.9,0-1.7-0.4-2.5c-0.4-0.4-1-0.6-1.6-0.5h-0.5c-1.2,0-2.4,0-3.5,0C667.2,57.5,666.8,57.5,666.4,57.2 M689.9,62.6c1.6-1.4,2.4-3.6,2.4-6.5c0-1.2-0.2-2.5-0.7-3.6c-0.6-1.1-1.4-2.2-2.4-3c-0.6-0.5-1.4-1.2-2.4-1.9c-2-1.6-3-2.8-3-3.5 c0-0.5,0.2-0.9,0.5-1.2c0.5-0.3,1-0.4,1.6-0.4c0.6,0,1.1,0.1,1.7,0.3c0.5,0.1,1.1,0.2,1.7,0.3c0.5,0.1,0.9-0.1,1.3-0.3 c0.3-0.5,0.4-1,0.3-1.6v-2.9c0-1.2-0.3-1.9-0.8-2.2c-1.3-0.3-2.6-0.5-3.9-0.4c-3.4,0-6,0.7-7.7,2c-1.8,1.5-2.7,3.7-2.5,6 c0,1.4,0.3,2.8,0.9,4c0.7,1.3,1.7,2.5,2.9,3.5c0.4,0.3,1,0.8,1.8,1.4c1.8,1.4,2.8,2.5,2.8,3.4c0,0.5-0.2,1-0.5,1.3 c-0.5,0.3-1.1,0.5-1.8,0.4c-0.9,0-1.8-0.2-2.6-0.5c-0.5-0.2-0.9-0.4-1.4-0.5c-0.6-0.1-1.1,0.1-1.6,0.5c-0.4,0.4-0.5,1-0.5,1.5v0.2 l0,3v0.3c0,0.4,0,0.8,0.2,1.2c0.2,0.2,0.4,0.4,0.7,0.5c0.8,0.3,1.6,0.5,2.4,0.6c1.1,0.2,2.3,0.2,3.4,0.2 C685.9,64.7,688.3,64,689.9,62.6 M699.9,59.3c0,0.7,0,1.3-0.2,2c-0.1,0.3-0.5,0.5-0.8,0.4c-0.2,0-0.4,0-0.5-0.2 c-0.1-0.2-0.2-0.4-0.1-0.6c0,0,0-0.1,0-0.2s0-0.1,0-0.2l0-3.8c0-0.1,0-0.2,0-0.5s0-0.5,0-0.7c0-0.2,0-0.3,0.1-0.5 c0.1-0.1,0.3-0.2,0.4-0.1c0.4,0,0.7,0.2,0.9,0.5c0.2,0.9,0.3,1.8,0.2,2.8L699.9,59.3z M702.3,62.9c0.7-1.2,1-2.6,0.9-4 c0-2.5-0.3-4.2-0.9-5.2c-0.7-1-1.9-1.6-3.2-1.5h-0.1l-1.4,0c-0.2,0-0.5,0-0.8,0c-0.3,0-0.4,0-0.5,0c-0.3,0-0.6,0-0.8,0.2 c-0.2,0.1-0.3,0.3-0.2,0.6c0,0,0,0.1,0,0.3c0.1,1.4,0.1,2.8,0.1,4.3c0,1.5,0,3-0.1,4.4c0,0.2,0,0.4,0,0.4v0.2c0,0.4,0,0.9,0.2,1.3 c0.2,0.2,0.5,0.3,0.8,0.2c0.5,0,0.9,0,1.4,0l0.2,0l1.2,0c0,0,0.1,0,0.3,0c0.1,0,0.2,0,0.3,0C700.7,64.2,701.7,63.7,702.3,62.9 M707.4,61.2c-0.1-0.1-0.1-0.2-0.1-0.5l0-1c0-0.3,0-0.4,0.1-0.5c0.1-0.1,0.3-0.1,0.5-0.1c0.3,0,0.6,0,0.9,0c0.3,0,0.5,0,0.6,0 c0.2,0,0.4-0.1,0.6-0.3c0.1-0.3,0.2-0.5,0.2-0.8v-0.5c0-0.3,0-0.6-0.2-0.9c-0.2-0.2-0.5-0.2-0.8-0.2c-0.2,0-0.4,0-0.7,0 s-0.5,0-0.6,0c-0.2,0-0.4,0-0.5-0.1c-0.1-0.2-0.2-0.4-0.1-0.7v-0.2c0-0.2,0-0.4,0.1-0.5c0.1-0.1,0.3-0.2,0.4-0.1h0.9 c0.1,0,0.2,0,0.4,0c0.2,0,0.3,0,0.3,0c0.3,0,0.5,0,0.7-0.2c0.1-0.2,0.2-0.4,0.2-0.6V54c0-0.3,0-0.6,0-0.9c0-0.2,0-0.5-0.2-0.7 c-0.2-0.1-0.5-0.2-0.8-0.2c-0.1,0-0.2,0-0.3,0H709c0,0-0.1,0-0.2,0s-0.1,0-0.1,0h-3c-0.4,0-0.8,0-1.2,0.2c-0.2,0.2-0.3,0.4-0.2,0.6 c0,0.1,0,0.2,0,0.2s0,0.1,0,0.2v8c0,0.3,0,0.6-0.1,1.1c0,0.4-0.1,0.7-0.1,0.9c0,0.2,0.1,0.4,0.2,0.5c0.2,0.1,0.4,0.2,0.6,0.2 c0.2,0,0.4,0,0.7,0c0.3,0,0.5,0,0.6,0c0.5,0,1.1,0,1.8,0s1.1,0,1.4,0c0.3,0,0.6,0,0.8-0.2c0.2-0.4,0.3-0.9,0.2-1.3 c0-0.4,0-0.7-0.2-1c-0.2-0.2-0.4-0.2-0.7-0.2h-0.2c-0.5,0-1,0-1.4,0C707.8,61.4,707.6,61.3,707.4,61.2"></path> <path id="Tracé_130" class="st0" d="M568.8,98.6c-0.1,1.3-0.2,2.2-0.2,2.7c0,0.6,0.2,1.2,0.7,1.5c0.6,0.4,1.2,0.6,1.9,0.6 c0.5,0,1.2,0,2.2-0.1c0.9-0.1,1.6-0.1,1.9-0.1c1.5,0,3.2,0,5.3,0.1s3.5,0.1,4.1,0.1c0.9,0.1,1.7-0.1,2.4-0.7c0.4-0.5,0.6-1.8,0.6-4 c0.1-1.1-0.1-2.2-0.5-3.1c-0.5-0.5-1.3-0.7-2-0.6h-0.7c-1.5,0-3,0-4.4,0c-0.6,0.1-1.1,0-1.6-0.3c-0.2-0.2-0.3-0.7-0.3-1.5l0.1-2.9 c0-0.8,0.1-1.2,0.4-1.4c0.4-0.2,0.9-0.3,1.4-0.3c0.8,0,1.7,0,2.7,0.1c1,0.1,1.7,0.1,1.9,0.1c0.7,0.1,1.4-0.2,1.8-0.8 c0.4-0.8,0.6-1.6,0.6-2.5v-1.5c0-1.5-0.2-2.4-0.6-2.8c-0.7-0.5-1.6-0.7-2.4-0.6c-0.6,0-1.3,0-2.2,0.1c-0.9,0-1.4,0.1-1.7,0.1 c-0.6,0.1-1.1-0.1-1.6-0.4c-0.4-0.6-0.5-1.4-0.4-2.1v-0.7c-0.1-0.5,0.1-1.1,0.4-1.6c0.4-0.3,0.8-0.5,1.3-0.4h2.6c0.3,0,0.7,0,1.1,0 c0.5,0,0.8,0,1,0c0.8,0.1,1.6-0.1,2.2-0.5c0.4-0.5,0.7-1.2,0.6-1.9v-0.4c0-0.9-0.1-1.8-0.1-2.6c0.1-0.7-0.1-1.5-0.6-2.1 c-0.7-0.4-1.6-0.6-2.4-0.5c-0.3,0-0.6,0-0.9,0h-0.2c-0.1,0-0.3,0-0.5,0s-0.4,0-0.4,0h-8.9c-1.9,0-3.1,0.2-3.6,0.5 c-0.5,0.5-0.8,1.2-0.7,1.9c0,0.2,0,0.5,0,0.8c0,0.3,0,0.4,0,0.5v24.1C569.1,96.2,569,97.3,568.8,98.6 M555.5,95 c-0.3,0-0.7,0-1.2,0.1c-0.5,0-0.8,0.1-1,0.1c-0.5,0-1.1-0.1-1.5-0.4c-0.4-0.3-0.6-0.8-0.7-1.3c-0.1-1.1-0.2-2.3-0.2-3.4 c0-1.9-0.1-6.3-0.1-13.4c0-1.9,0-3.9,0.1-5.9v-0.7c0-0.6,0-1.2-0.1-1.7c-0.1-0.3-0.2-0.5-0.5-0.7c-0.1-0.1-0.3-0.1-0.4-0.1 c-0.2,0-0.4-0.1-0.7,0c-0.2,0-0.6,0-1.3,0s-1.3,0-1.8,0c-0.7,0-1.5,0-2.2,0c-0.2,0-0.3,0-0.4,0c-0.6-0.1-1.1,0.1-1.5,0.6 c-0.4,0.9-0.5,1.9-0.4,2.8c0,1.5,0,3.4,0,5.9s0,4.2,0,5.2c0,2.1,0,4.9-0.1,8.6c0,3.6-0.1,6.2-0.1,7.7v0.5c0,2.1,0.2,3.4,0.5,3.9 c0.4,0.6,1.1,0.8,1.8,0.8c0.2,0,0.5,0,0.8,0c0.3,0,0.5,0,0.7,0h7.2c0.2,0,0.5,0,1,0s1,0,1.3,0c0.9,0.1,1.7-0.2,2.4-0.7 c0.6-0.5,0.8-1.3,0.8-2.1v-2.6c0.1-0.8-0.1-1.7-0.6-2.4C557,95.2,556.2,94.9,555.5,95 M564.8,69.6c0.1-0.5-0.1-1-0.4-1.4 c-0.4-0.3-1-0.4-1.5-0.4h-5.1c-0.6-0.1-1.2,0.1-1.7,0.3c-0.3,0.3-0.5,0.7-0.5,1.2v5.5c-0.1,0.5,0.1,1.1,0.4,1.5 c0.6,0.3,1.3,0.4,1.9,0.3h0.9c-0.4,0.8-0.9,1.6-1.4,2.5c-0.4,0.5-0.6,1-0.9,1.6c0,0.2,0.1,0.4,0.3,0.4c0.2,0.1,0.5,0.2,0.8,0.2h2.3 c0.3,0,0.7-0.1,1-0.2c0.3-0.1,0.5-0.3,0.7-0.5l2.3-3.6c0-0.1,0.1-0.2,0.2-0.3c0.4-0.4,0.6-1,0.6-1.6L564.8,69.6z M604,67.4 c-4.3,0-7.5,0.8-9.6,2.5c-2.1,1.7-3.2,4.2-3.2,7.6c0,1.8,0.4,3.5,1.1,5.1c0.9,1.7,2.2,3.2,3.7,4.4c0.5,0.4,1.2,1,2.2,1.8 c2.3,1.7,3.5,3.2,3.5,4.3c0.1,0.6-0.2,1.3-0.7,1.7c-0.7,0.4-1.4,0.6-2.2,0.5c-1.1,0-2.2-0.2-3.3-0.6c-0.6-0.3-1.2-0.5-1.8-0.6 c-0.7-0.1-1.4,0.1-2,0.6c-0.4,0.5-0.7,1.2-0.6,1.9v0.2l0.1,3.8v0.4c0,0.5,0,1,0.2,1.5c0.2,0.3,0.5,0.6,0.9,0.7c1,0.4,2,0.6,3,0.7 c1.4,0.2,2.9,0.3,4.3,0.3c4.2,0,7.3-0.9,9.2-2.6c2-1.8,3-4.5,3-8.2c0-1.6-0.3-3.1-0.9-4.6c-0.7-1.4-1.8-2.7-3-3.7 c-0.7-0.6-1.7-1.5-3-2.5c-2.5-2-3.8-3.5-3.8-4.4c0-0.6,0.2-1.1,0.7-1.5c0.6-0.4,1.3-0.6,2-0.5c0.7,0,1.4,0.1,2.1,0.3 c0.7,0.2,1.4,0.3,2.1,0.3c0.6,0.1,1.2-0.1,1.6-0.4c0.3-0.6,0.5-1.3,0.4-2v-3.6c0-1.5-0.3-2.4-1-2.7S606.7,67.4,604,67.4 M631.5,80.8c0,2.1-0.2,3.6-0.7,4.3c-0.6,0.8-1.6,1.2-2.6,1.1c-0.5,0-1-0.1-1.5-0.3c-0.3-0.1-0.6-0.4-0.7-0.7 c-0.1-0.9-0.2-1.8-0.2-2.7c-0.1-1.4-0.1-3.1-0.1-4.9c-0.1-0.8,0.1-1.6,0.6-2.3c0.5-0.5,1.2-0.8,1.9-0.7c1-0.1,2.1,0.4,2.6,1.4 C631.4,77.6,631.6,79.2,631.5,80.8 M641,80.4c0-4.5-1-7.8-2.9-9.9c-1.9-2.1-4.9-3.2-8.9-3.2c-3.7,0-6.9,0.1-9.7,0.3h-0.3 c-0.6,0-1.2,0.2-1.7,0.7c-0.4,0.6-0.6,1.2-0.5,1.9c0,0.1,0,0.5,0.1,1.1c0.1,2.9,0.2,5.7,0.2,8.5c0,2.2,0,5.2-0.1,8.8 c-0.1,3.7-0.1,6.2-0.1,7.6c0,0.8,0,1.6,0,2.5s0,1.4,0,1.5c0,0.1,0,0.3,0,0.7s0,0.7,0,0.9c0,0.5,0.1,0.9,0.4,1.3 c0.3,0.3,0.8,0.5,1.2,0.4c0.3,0,0.8,0,1.5-0.1c0.5-0.1,1.1-0.1,1.6-0.1c0.3,0,0.7,0,1.2,0.1c0.5,0,0.8,0.1,1,0.1 c0.6,0.1,1.2-0.1,1.6-0.4c0.4-0.4,0.5-0.9,0.5-1.5c0-0.1,0-0.3-0.1-0.7c-0.1-1.6-0.2-3.2-0.2-4.6c-0.1-0.6,0.1-1.2,0.6-1.6 c0.7-0.4,1.4-0.5,2.2-0.4c0.1,0,0.3,0,0.5,0c0.3,0,0.4,0,0.5,0c3.2,0.1,6.2-1.3,8.1-3.7C640,87.9,641,84.5,641,80.4 M660.8,87.6 c0,3.5-0.2,5.7-0.6,6.5c-0.5,0.9-1.4,1.3-2.4,1.2c-0.8,0.1-1.6-0.3-2-1c-0.5-1.2-0.6-2.5-0.5-3.8v-9.9c-0.1-1.4,0.1-2.8,0.6-4.2 c0.4-0.8,1.3-1.2,2.2-1.2c0.8,0,1.6,0.4,2,1c0.5,0.8,0.8,1.8,0.7,2.8L660.8,87.6L660.8,87.6z M658.8,66.9c-2.4-0.1-4.9,0.4-7.1,1.3 c-1.8,0.7-3.4,2.1-4.4,3.8c-0.9,1.5-1.4,3.1-1.7,4.7c-0.4,3-0.6,6.1-0.5,9.1c0,6.8,0.9,11.5,2.8,14.2c1.9,2.7,5,4,9.5,4 c2.7,0.1,5.3-0.5,7.7-1.6c2-0.9,3.6-2.5,4.5-4.5c0.6-1.5,1-3.2,1.2-4.8c0.2-2,0.3-5.5,0.3-10.6v-1.6c0-4.9-1-8.5-2.9-10.7 C666.1,68,663,66.9,658.8,66.9 M678.2,67.5c-1-0.1-1.9,0-2.8,0.4c-0.4,0.5-0.6,1.2-0.5,1.8v0.5c0.1,1.6,0.1,3.2,0.1,4.8 c0,7.4-0.1,14.9-0.2,22.4c0,1.5-0.1,2.3-0.1,2.6c0,1.5,0.2,2.4,0.6,2.8c0.4,0.3,1.5,0.5,3.1,0.5h2c1.6,0,2.7-0.2,3.1-0.6 c0.5-0.7,0.7-1.5,0.6-2.4c0-0.8,0-1.7-0.1-3c0-1.2-0.1-2-0.1-2.5c0-1,0-3.8,0.1-8.4c0.1-4.6,0.1-8.7,0.1-12.3v-3 c0-0.8,0-1.6-0.1-2.4c0-0.3-0.2-0.7-0.4-0.9c-0.3-0.2-0.6-0.3-0.9-0.4c-0.6-0.1-1.3-0.1-1.9-0.1L678.2,67.5z M703.8,82 c0,0.9-0.3,1.8-0.9,2.4c-0.6,0.6-1.5,1-2.3,0.9c-0.8,0.1-1.6-0.1-2.2-0.6c-0.4-0.4-0.6-1.6-0.6-3.5c0-0.6,0-1.3-0.1-2.1 c0-0.8-0.1-1.3-0.1-1.4c-0.1-0.7,0.2-1.4,0.6-2c0.5-0.5,1.2-0.7,1.9-0.7c1.1-0.1,2.1,0.3,2.8,1.2C703.5,77,703.8,78.9,703.8,82 M714.3,102.1c0-0.1,0-0.3-0.1-0.4c-0.1-0.2-0.1-0.3-0.2-0.5l-5.2-10.4c1.5-0.7,2.7-1.9,3.3-3.5c0.8-2.5,1.1-5,1-7.6 c0-4.5-0.8-7.6-2.4-9.5c-1.6-1.9-4.3-2.8-8.1-2.8c-0.8,0-2,0-3.4,0.1s-2.4,0.1-2.9,0.1c-0.4,0-1,0-2,0s-1.8,0-2.5,0 c-0.9-0.1-1.7,0.1-2.5,0.6c-0.5,0.7-0.8,1.6-0.7,2.5v29.6c-0.1,0.9,0,1.9,0.4,2.7c0.5,0.4,1.1,0.6,1.8,0.5h5.1c0.5,0,1-0.1,1.4-0.5 c0.3-0.4,0.5-1,0.5-1.6V90.8h1l4.4,9.9c0.1,0.2,0.2,0.4,0.3,0.8c0.3,1.1,1.3,1.9,2.4,1.9h4.9c0.2,0,0.4,0,0.7,0c0.2,0,0.4,0,0.6,0 c0.5,0,1-0.1,1.5-0.4C714.1,102.9,714.3,102.5,714.3,102.1"></path> </g> </svg> 