<?xml version="1.0" encoding="UTF-8"?> <!-- Generator: Adobe Illustrator 23.0.1, SVG Export Plug-In . SVG Version: 6.00 Build 0) --> <svg xmlns="http://www.w3.org/2000/svg" xmlns:xlink="http://www.w3.org/1999/xlink" version="1.1" id="Calque_1" x="0px" y="0px" viewBox="0 0 95.6 65.4" style="enable-background:new 0 0 95.6 65.4;" xml:space="preserve"> <style type="text/css"> .st0{clip-path:url(#SVGID_2_);} .st1{fill:#1E8D7F;} </style> <g id="LOGO_VLM" transform="translate(-13.667 17.058)"> <g id="Groupe_2" transform="translate(13.667 -12.231)"> <g> <defs> <rect id="SVGID_1_" x="0" y="-4.8" width="95.6" height="65.4"></rect> </defs> <clipPath id="SVGID_2_"> <use xlink:href="#SVGID_1_" style="overflow:visible;"></use> </clipPath> <g id="Groupe_1" transform="translate(0 0)" class="st0"> <path id="Tracé_1" d="M17.7,24.6c-0.1-0.2-0.1-0.4-0.2-0.6c-0.1-0.2-0.2-0.4-0.2-0.6c0-0.5,0.4-0.5,0.5-0.5c0.1,0,0.5,0,0.6,0 c0,0,0.3,0,0.3,0c0,0,0.1,0,0.2,0s0.2,0,0.2,0s0.1,0,0.2,0s0.2,0,0.2,0c0.1,0,0.2,0,0.3,0.1c0.2,0.1,0.3,0.3,0.3,0.5 c0,0.1,0.1,0.3,0.1,0.3s0,0.1,0,0.1c0.1,0.2,0.1,0.4,0.1,0.6c0,0.1,0,0.2,0,0.3c0,0.1,0.2,0.8,0.3,0.9c0,0.1,0,0.2,0,0.2 c0,0.3,0.1,0.4,0.1,0.4c0,0,0.1-0.1,0.1-0.2c0,0,0.1-0.5,0.1-0.5c0-0.1,0.1-0.1,0.1-0.1s0.1-0.3,0.1-0.4c0-0.2,0.1-0.3,0.1-0.5 c0.1-0.2,0.2-0.4,0.2-0.6c0-0.1,0-0.2,0-0.3c0-0.2,0.1-0.5,0.2-0.7C22,23,22.1,23,22.3,23c0,0,0.1,0,0.2,0s0.2,0,0.2,0 c0.1,0,0.1,0,0.2,0c0.1,0,0.2,0,0.3,0c0.1,0,0.2,0,0.3,0h0.4c0.2,0,0.6,0,0.6,0.4c0,0.2-0.1,0.5-0.2,0.7 c-0.1,0.2-0.2,0.4-0.2,0.6c0,0.2-0.1,0.4-0.1,0.5c-0.1,0.2-0.1,0.4-0.2,0.5c0,0.1-0.1,0.3-0.1,0.4c0,0.1-0.3,0.7-0.3,0.8 c0,0.1,0,0.2-0.1,0.3s-0.1,0.2-0.1,0.3C23.1,27.7,23,27.9,23,28c0,0.1,0,0.2,0,0.2c0,0-0.1,0.3-0.1,0.3c0,0.1-0.1,0.2-0.1,0.3 c0,0.1-0.1,0.2-0.1,0.3s-0.1,0.3-0.1,0.4c-0.1,0.2-0.2,0.3-0.5,0.3c0,0-0.3,0-0.3,0c-0.1,0-0.5,0-0.6,0c-0.1,0-0.2,0-0.3,0 s-0.2,0-0.3,0c-0.1,0-0.1,0-0.2,0c-0.1,0-0.2,0-0.3,0s-0.2,0-0.3,0c-0.3,0-0.5-0.1-0.7-0.6c0-0.2-0.1-0.3-0.2-0.5 c0-0.1-0.1-0.2-0.1-0.2c0-0.1-0.1-0.2-0.1-0.3s-0.1-0.2-0.1-0.3c0-0.1-0.1-0.2-0.1-0.4c0-0.2-0.1-0.4-0.1-0.6 c0-0.1-0.1-0.1-0.1-0.2s-0.1-0.1-0.1-0.2c-0.1-0.3-0.2-0.6-0.3-1C17.8,25.3,17.8,24.9,17.7,24.6"></path> <path id="Tracé_2" d="M24.1,29.5c0,0.4,0.4,0.4,0.5,0.4c0,0,0.3,0,0.3,0s0.2,0,0.3,0c0.1,0,0.4,0,0.5,0s0.4,0,0.5,0 c0.2,0,0.3-0.1,0.4-0.3c0-0.1,0.1-0.3,0.2-0.4c0.1-0.1,0.3-0.2,0.4-0.2c0.1,0,0.6,0,0.7,0c0.1,0,0.1,0,0.2,0c0.1,0,0.3,0,0.4,0 c0.3,0,0.3,0.1,0.5,0.5c0.1,0.3,0.2,0.3,0.5,0.3c0,0,0.2,0,0.2,0s0.1,0,0.2,0s0.2,0,0.2,0c0.1,0,0.5,0,0.6,0c0.1,0,0.3,0,0.4,0 c0.3,0,0.5-0.3,0.5-0.6c0-0.1,0-0.1,0-0.1c0,0-0.1-0.4-0.1-0.4s-0.1-0.2-0.1-0.2c0-0.1-0.1-0.2-0.1-0.3c0-0.1-0.1-0.2-0.1-0.3 s-0.1-0.2-0.1-0.3c0-0.1-0.1-0.2-0.1-0.3c0-0.1-0.1-0.2-0.1-0.3c0-0.2-0.1-0.3-0.1-0.5c-0.1-0.3-0.2-0.5-0.2-0.8 c0-0.2-0.1-0.5-0.2-0.7c-0.1-0.2-0.2-0.5-0.2-0.6c0-0.1,0-0.2-0.1-0.3c0-0.1,0-0.1-0.1-0.2c0-0.2-0.1-0.4-0.2-0.6 c-0.1-0.1-0.2-0.2-0.3-0.3C29.5,23,29.4,23,29.2,23c-0.1,0-0.3,0-0.3,0c-0.1,0-0.6,0-0.6,0c0,0-0.3,0-0.3,0c-0.1,0-0.5,0-0.6,0 c-0.1,0-0.6,0-0.7,0c-0.2,0-0.4,0-0.5,0.1c-0.1,0.1-0.2,0.3-0.3,0.4c0,0.1-0.1,0.2-0.1,0.3s-0.1,0.2-0.1,0.3 c0,0.1-0.3,0.8-0.3,0.9c0,0.1-0.1,0.2-0.1,0.4c0,0.1-0.1,0.2-0.1,0.2c-0.1,0.2-0.2,0.4-0.2,0.7c-0.1,0.3-0.1,0.6-0.2,0.9 c0,0.2-0.1,0.4-0.2,0.6c0,0.1-0.1,0.2-0.1,0.3c-0.1,0.3-0.1,0.7-0.3,1C24.1,29.2,24.1,29.3,24.1,29.5 M27.8,25.3 c0.1,0,0.2,0.1,0.2,0.2c0,0.1,0.1,0.2,0.1,0.3c0,0.1,0.1,0.1,0.1,0.2c0,0.1,0,0.2,0.1,0.3c0,0.1,0,0.2,0.1,0.3c0,0,0,0.1,0,0.1 c0,0.1-0.1,0.2-0.3,0.2c0,0-0.2,0-0.2,0c-0.1,0-0.2,0-0.3,0c-0.1,0-0.2-0.1-0.2-0.2c0-0.2,0.1-0.4,0.1-0.6 c0-0.2,0.1-0.3,0.1-0.5C27.7,25.4,27.7,25.3,27.8,25.3"></path> <path id="Tracé_3" d="M32.2,26.4c0-0.2,0-0.3,0-0.5c0-0.2,0-0.3,0-0.5s0-0.3,0-0.5c0-0.1,0-0.5,0-0.6c0-0.1-0.1-0.9-0.1-0.9 c0-0.1,0-0.3,0.1-0.4c0.1-0.1,0.3-0.2,0.4-0.2c0.1,0,0.3,0,0.5,0c0.1,0,0.1,0,0.1,0s0.2,0,0.4,0s0.4,0,0.4,0 c0.5,0,0.6,0.1,0.7,0.2c0.1,0.1,0.1,0.2,0.1,0.4c0,0.1,0,0.8,0,0.9c0,0.2,0,0.9,0,1.1c0,0.1,0,0.1,0,0.2c0,0.2,0,0.4,0,0.6 c0,0,0,0.1,0,0.1v0.8c0,0.1,0,0.2,0,0.3c0,0.1,0,0.3,0,0.4c0,0,0,0.2,0,0.2s0,0.5,0,0.6c0,0.2,0,0.3,0,0.5c0,0.1,0,0.2,0,0.2 c0,0.3-0.2,0.5-0.6,0.5c-0.1,0-0.5,0-0.7,0s-0.7,0-0.8,0c-0.4,0-0.7,0-0.7-0.5c0-0.1,0-0.4,0-0.4v-1c0-0.1,0-0.2,0-0.3 c0,0,0-0.4,0-0.4s0-0.4,0-0.5L32.2,26.4z"></path> <path id="Tracé_4" d="M40.4,24.1c0-0.1,0-0.2,0-0.3c0,0,0-0.3,0-0.3c0-0.1,0-0.2,0.1-0.3c0.1-0.1,0.2-0.2,0.5-0.2 c0.1,0,0.4,0,0.4,0l0.3,0c0.2,0,0.4,0,0.6,0c0.2,0,0.3,0,0.5,0.1c0.2,0.1,0.3,0.3,0.3,0.6c0,0,0,0.4,0,0.4 c0,0.1-0.1,0.5-0.1,0.6s0,0.6,0,0.8c0,0.2,0,0.4,0,0.7c0,0.3,0,0.4,0,0.5c0,0.1,0.1,0.8,0.1,1c0,0.2,0,1.2,0,1.4 c0,0.1,0,0.2,0,0.3c0,0.1,0,0.2,0,0.3c0,0.3-0.2,0.5-0.5,0.5c-0.1,0-0.4,0-0.5,0c0,0-0.3,0-0.5,0c-0.1,0-0.1,0-0.2,0 c-0.5,0-0.6-0.1-0.7-0.2c0-0.1-0.1-0.1-0.1-0.1c-0.1-0.1-0.3-0.3-0.4-0.4c-0.1-0.1-0.2-0.3-0.3-0.4c-0.1-0.1-0.4-0.4-0.4-0.5 c0,0-0.1-0.1-0.1-0.1c0-0.1-0.1-0.1-0.1-0.2c0-0.1-0.1-0.1-0.1-0.2c0-0.1-0.1-0.1-0.2-0.1c-0.2,0-0.2,0.2-0.2,0.3 c0,0,0,0.3,0,0.3c0,0.1,0,0.6,0,0.8v0.1c0,0,0,0.3,0,0.4c0,0.1,0,0.1,0,0.2c-0.1,0.2-0.2,0.3-0.4,0.2c-0.1,0-0.3,0-0.3,0 s-0.4,0-0.4,0s-0.5,0-0.6,0c-0.1,0-0.5,0-0.6,0c-0.2,0-0.5-0.2-0.5-0.4c0,0,0,0,0-0.1c0-0.1,0-0.2,0-0.3c0-0.1,0-0.2,0-0.3 c0-0.2,0-0.3,0.1-0.5c0-0.1,0-0.2,0-0.2c0-0.1,0-0.6,0-0.8c0-0.1,0-0.6,0-0.7c0-0.2,0-1.1,0.1-1.4c0-0.2,0-0.4,0-0.6 c0-0.2,0-0.4-0.1-0.6c0-0.1,0-0.3,0-0.4c0-0.2,0-0.3,0.1-0.4c0.1-0.1,0.2-0.1,0.5-0.1h0.2c0,0,0.1,0,0.1,0h0.1 c0.2,0,0.6,0,0.8,0c0.1,0,0.3,0,0.4,0c0.2,0,0.5,0.1,0.6,0.3c0.1,0.2,0.2,0.4,0.4,0.6c0,0.1,0.1,0.2,0.2,0.2 c0.1,0.1,0.2,0.2,0.2,0.3c0,0.1,0.1,0.2,0.1,0.3c0,0,0.1,0.1,0.1,0.1c0,0,0.1,0.1,0.1,0.1c0.1,0.2,0.2,0.3,0.3,0.3 c0.1,0,0.1-0.1,0.1-0.2c0,0,0,0,0,0c0,0,0-0.4,0-0.4L40.4,24.1z"></path> <path id="Tracé_5" d="M43.7,27.2c0-0.1,0-0.2,0-0.3c0-0.2,0-0.4-0.1-0.6c0-0.3,0-0.6,0.1-0.9c0-0.2,0.1-0.3,0.2-0.5 c0.1-0.1,0.1-0.3,0.2-0.4c0.1-0.1,0.1-0.2,0.2-0.3c0.2-0.2,0.4-0.5,0.7-0.6c0.3-0.3,0.7-0.5,1.1-0.5c0.3-0.1,0.6-0.1,0.9-0.1 c0.4,0,0.8,0,1.2,0.1c0.1,0,0.3,0.1,0.3,0.2c0,0.1,0,0.2,0,0.3c0,0.1,0,0.6,0,0.7v0.1c0,0.1,0.1,0.7,0.1,0.8 c0,0.5-0.2,0.6-0.4,0.6c0,0-0.3,0-0.4,0s-0.3,0-0.3,0l-0.2,0h-0.1c-0.2,0-0.4,0.1-0.5,0.2c-0.2,0.1-0.3,0.4-0.3,0.7 c0,0.1,0,0.2,0,0.2c0,0.1,0.1,0.3,0.2,0.4c0.2,0.2,0.5,0.3,0.8,0.3c0.1,0,0.5-0.1,0.6-0.1H48c0.5,0,0.6,0.2,0.6,0.7 c0,0.1,0,0.5,0,0.5c0,0.2,0,0.3,0,0.5c0,0.1,0,0.2,0,0.3c0,0.1,0,0.2-0.1,0.3c-0.1,0.2-0.3,0.3-0.5,0.3c-0.1,0-0.4,0-0.5,0 c-0.2,0-0.3,0-0.5,0c-0.2,0-0.4,0-0.5-0.1c-0.2,0-0.4,0-0.6-0.1c-0.2,0-0.3-0.1-0.5-0.1c-0.4-0.1-0.7-0.4-0.9-0.7 c-0.1-0.1-0.2-0.2-0.2-0.3c-0.1-0.1-0.1-0.1-0.2-0.2C43.9,28.1,43.7,27.7,43.7,27.2"></path> <path id="Tracé_6" d="M52.3,25.6c0,0,0,0.2,0,0.2s0,0.2,0,0.2c0,0.3,0.2,0.3,0.3,0.3c0.2,0,0.3,0,0.5-0.1 c0.1,0,0.3-0.1,0.4-0.2c0.1-0.1,0.1-0.2,0.1-0.3c0-0.2-0.1-0.4-0.2-0.4c-0.1-0.1-0.2-0.1-0.4-0.1c0,0-0.1,0-0.1,0 c-0.1,0-0.2,0-0.2,0C52.3,25.2,52.3,25.4,52.3,25.6 M49.6,24.1c0-0.1,0-0.4,0-0.4c0-0.1,0-0.2,0.1-0.4c0.1-0.2,0.4-0.4,0.6-0.3 c0.1,0,0.2,0,0.3,0c0.1,0,0.4,0,0.4,0c0,0,0.3,0,0.3,0c0,0,0.2,0,0.2,0c0.1,0,0.7,0,0.8,0c0.2,0,0.4,0,0.6,0.1 c0.1,0,0.4,0,0.5,0c0.3,0,0.6,0,0.8,0.1c0.2,0,0.4,0.1,0.5,0.2c0.2,0.1,0.4,0.2,0.5,0.3c0.1,0.1,0.2,0.2,0.2,0.3 c0,0.1,0.1,0.1,0.1,0.1s0.1,0.1,0.1,0.2c0,0,0.1,0.1,0.1,0.1c0.2,0.3,0.3,0.7,0.3,1.1c0,0.1,0,0.2,0,0.3c0,0.3-0.1,0.6-0.2,0.8 c-0.2,0.4-0.5,0.7-0.9,0.8c-0.1,0-0.2,0.1-0.2,0.2c0,0.1,0.1,0.1,0.1,0.1c0.1,0,0.2,0,0.3,0.1c0.1,0,0.2,0,0.3,0 c0,0,0.2,0,0.3,0c0.1,0,0.5,0,0.5,0.5c0,0.1,0,0.5,0,0.6c0,0.2,0,0.4,0,0.6c0,0.5-0.3,0.6-0.5,0.6c0,0-0.2,0-0.2,0 c-0.1,0-0.3,0-0.4,0c-0.2,0-0.5,0-0.7-0.1c-0.3-0.1-0.7-0.3-1-0.6c-0.1-0.1-0.2-0.1-0.3-0.2c0,0-0.5-0.4-0.5-0.4 c-0.1,0-0.1,0-0.2,0c-0.1,0-0.2,0.1-0.2,0.3c0,0.1,0,0.2,0,0.3c0,0.1,0,0.1,0,0.2c0,0,0,0.1,0,0.1c0,0.2-0.1,0.4-0.3,0.4 c0,0-0.1,0-0.1,0c-0.1,0-0.3,0-0.4,0c-0.1,0-0.5,0-0.5,0c-0.1,0-0.1,0-0.2,0c-0.1,0-0.3,0-0.4,0s-0.4,0-0.5,0 c-0.2,0-0.4-0.1-0.5-0.4c0,0,0-0.1,0-0.1c0-0.1,0-0.1,0-0.2c0-0.2,0-0.3,0-0.5c0-0.1,0-0.5,0-0.7c0,0,0-0.3,0-0.3 c0-0.1,0-0.3,0-0.4c0-0.1,0-0.3,0-0.3c0-0.1,0-0.4,0-0.5v-1c0,0,0-0.1,0-0.2v-0.2c0-0.1,0-0.5,0-0.6L49.6,24.1z"></path> <path id="Tracé_7" d="M61.3,25.5c0.1,0,0.4,0,0.5,0c0.4,0,0.5,0.1,0.5,0.4c0,0.1,0,0.2,0,0.3c0,0.1,0,0.5,0,0.6 c0,0.4-0.2,0.4-0.3,0.4c-0.1,0-0.2,0-0.2,0c-0.1,0-0.1,0-0.2,0l-0.9,0c-0.1,0-0.4,0-0.4,0c-0.1,0-0.4,0-0.4,0.2 c0,0.3,0.4,0.3,0.6,0.3c0.1,0,0.1,0,0.3,0c0.1,0,0.3,0,0.4,0c0,0,0.3,0,0.4,0c0.1,0,0.3,0,0.4,0c0.2,0,0.3,0.1,0.4,0.1 c0.1,0.1,0.2,0.3,0.2,0.5c0,0,0,0.3,0,0.3c0,0.1,0,0.5,0,0.5c0,0.5-0.1,0.7-0.5,0.7c-0.1,0-0.5,0-0.6,0c-0.1,0-0.2,0-0.4,0 c-0.2,0-0.4,0-0.5,0c-0.1,0-0.2,0-0.4,0c-0.4,0-0.8,0-1.2,0c0,0-0.2,0-0.3,0c-0.2,0-0.4,0-0.6,0c-0.2,0-0.3,0-0.3,0 c-0.5,0-0.5-0.3-0.5-0.5c0-0.1,0-0.4,0-0.4c0-0.2,0-0.9,0-1.1c0-0.1,0-0.5,0-0.6c0-0.2,0-0.3,0-0.5c0-0.2,0-0.3,0-0.5 c0,0,0-0.2,0-0.2c0-0.1,0-0.2,0-0.2c0-0.1,0-0.5,0-0.6c0-0.2,0-0.4,0-0.6c0-0.1,0-0.2,0-0.3c0-0.2,0-0.3,0-0.5 c0-0.1,0-0.2,0-0.3c0-0.5,0.3-0.7,0.6-0.7c0.1,0,0.3,0,0.4,0c0.2,0,0.4,0,0.6,0c0.1,0,0.5,0,0.6,0c0.1,0,0.1,0,0.2,0 c0,0,0.1,0,0.1,0c0,0,0,0,0.1,0h0.1c0,0,0.1,0,0.1,0c0.1,0,0.1,0,0.1,0c0,0,0.1,0,0.1,0h0.1c0,0,0.1,0,0.1,0c0,0,0.1,0,0.1,0 c0,0,0.1,0,0.1,0c0,0,0.5,0,0.5,0c0,0,0.2,0,0.3,0h0.2c0,0,0.2,0,0.2,0c0.1,0,0.2,0,0.3,0c0.2,0.1,0.2,0.5,0.2,0.6 c0,0.1,0,0.2,0,0.4c0,0.1,0,0.5,0,0.6c0,0.1,0,0.3-0.1,0.4c0,0.1-0.2,0.2-0.3,0.2c0,0-0.2,0-0.3,0s-0.3,0-0.4,0s-0.4,0-0.5,0 s-0.4,0-0.4,0c0,0-0.3,0-0.3,0c-0.2,0-0.4,0-0.4,0.2c0,0.3,0.2,0.3,0.7,0.3c0.1,0,0.3,0,0.4,0c0,0,0.2,0,0.2,0L61.3,25.5z"></path> <path id="Tracé_8" d="M65.4,25.5c0-0.3,0-0.3,0-0.4s0-0.7,0-0.8c0-0.1,0-0.4,0-0.5c0,0,0-0.2,0-0.2c0-0.3,0.1-0.7,0.5-0.7 c0.1,0,0.6,0,0.7,0c0.1,0,0.6-0.1,0.7-0.1c0.6,0,0.7,0.3,0.7,0.7c0,0.1,0,0.4,0,0.6v0.2c0,0.1,0,0.3,0,0.4v0.1 c0,0.2-0.1,0.3-0.1,0.5v0.1c0,0.1,0,0.6,0,0.7c0,0.1,0,0.4,0,0.5c0,0.2,0,0.4,0.1,0.5c0.1,0.1,0.2,0.1,0.3,0.1 c0.1,0,0.4,0,0.5,0c0.1,0,0.2,0,0.3,0c0,0,0.2,0,0.2,0c0.3,0,0.5,0.3,0.5,0.6c0,0.1,0,0.1,0,0.2c0,0.1,0,0.6,0,0.8 c0,0.1,0,0.2,0,0.3c0,0.1,0,0.2,0,0.3c0,0,0,0.6-0.5,0.6c-0.1,0-0.5-0.1-0.6-0.1c-0.2,0-0.4,0-0.6,0s-0.5,0-0.5,0s-0.3,0-0.4,0 h-0.1c0,0-0.2,0-0.3,0c-0.1,0-0.3,0-0.4,0c-0.2,0-0.3,0-0.5,0c-0.6,0-0.6-0.4-0.6-0.6c0-0.1,0-0.2,0-0.4c0,0,0-0.3,0-0.3 c0-0.1,0-0.6,0-0.7c0-0.1,0-0.1,0-0.2c0-0.1,0-0.9,0-1C65.4,26.4,65.4,25.8,65.4,25.5"></path> <path id="Tracé_9" d="M70.4,29.5c0,0.4,0.4,0.4,0.5,0.4c0,0,0.3,0,0.3,0s0.2,0,0.3,0c0.1,0,0.4,0,0.5,0s0.4,0,0.5,0 c0.2,0,0.3-0.1,0.4-0.3c0-0.1,0.1-0.3,0.2-0.4c0.1-0.1,0.3-0.2,0.4-0.2c0.1,0,0.6,0,0.7,0c0.1,0,0.1,0,0.2,0c0.1,0,0.3,0,0.4,0 c0.3,0,0.3,0.1,0.5,0.5c0.1,0.3,0.2,0.3,0.5,0.3c0,0,0.2,0,0.2,0s0.1,0,0.2,0s0.2,0,0.2,0c0.1,0,0.5,0,0.6,0c0.1,0,0.3,0,0.4,0 c0.3,0,0.5-0.3,0.5-0.6c0-0.1,0-0.1,0-0.1c0,0-0.1-0.4-0.1-0.4s-0.1-0.2-0.1-0.2c0-0.1-0.1-0.2-0.1-0.3c0-0.1-0.1-0.2-0.1-0.3 s-0.1-0.2-0.1-0.3c0-0.1-0.1-0.2-0.1-0.3c0-0.1-0.1-0.2-0.1-0.3c0-0.2-0.1-0.3-0.1-0.5C77,26.3,77,26,76.9,25.8 c0-0.2-0.1-0.5-0.2-0.7c-0.1-0.2-0.2-0.5-0.2-0.6c0-0.1,0-0.2-0.1-0.3c0-0.1,0-0.1,0-0.2c0-0.2-0.1-0.4-0.2-0.6 c-0.1-0.1-0.2-0.2-0.3-0.3C75.8,23,75.7,23,75.5,23c0,0-0.3,0-0.3,0c-0.1,0-0.6,0-0.6,0c0,0-0.3,0-0.3,0c-0.1,0-0.5,0-0.6,0 c-0.1,0-0.6,0-0.7,0c-0.2,0-0.4,0-0.5,0.1c-0.1,0.1-0.2,0.3-0.3,0.4c0,0.1-0.1,0.2-0.1,0.3c0,0.1-0.1,0.2-0.1,0.3 c0,0.1-0.3,0.8-0.3,0.9c0,0.1-0.1,0.2-0.1,0.4c0,0.1-0.1,0.2-0.1,0.2c-0.1,0.2-0.2,0.4-0.2,0.7c-0.1,0.3-0.1,0.6-0.2,0.9 c0,0.2-0.1,0.4-0.2,0.6c0,0.1-0.1,0.2-0.1,0.3c-0.1,0.3-0.2,0.7-0.3,1C70.4,29.2,70.4,29.3,70.4,29.5 M74.1,25.3 c0.1,0,0.2,0.1,0.2,0.2c0,0.1,0.1,0.2,0.1,0.3c0,0.1,0.1,0.1,0.1,0.2c0,0.1,0,0.2,0.1,0.3c0,0.1,0,0.2,0.1,0.3c0,0,0,0.1,0,0.1 c0,0.1-0.1,0.2-0.3,0.2c0,0-0.2,0-0.2,0c-0.1,0-0.2,0-0.3,0c-0.1,0-0.2-0.1-0.2-0.2c0-0.2,0.1-0.4,0.1-0.6 c0-0.2,0.1-0.3,0.1-0.5C74,25.4,74,25.3,74.1,25.3"></path> <path id="Tracé_10" d="M2.9,41.1c0,0.2,0,1,0,1.2c0,0.1,0,0.8,0,0.9s0,0.7,0,0.8c0,0.1,0,0.4-0.5,0.4c0,0-0.4,0-0.4,0 c-0.2,0-0.4,0-0.7,0c-0.2,0-0.6,0-0.8,0c-0.4,0-0.5-0.2-0.5-0.6c0-0.4,0-2.4,0-2.8s0-2.8,0-3.3c0-0.2,0-1.5,0-1.8 c0-0.2,0-1.1,0-1.3c0-0.1,0-0.8,0-1c0-0.2,0-1.1,0-1.3c0-0.3,0-0.6,0.1-0.8c0.1-0.2,0.2-0.3,0.4-0.3c0.1,0,0.9,0,1.1,0 c0.1,0,0.9,0,1.1,0c0.2,0,0.4,0.1,0.5,0.2c0.1,0.2,0.1,0.4,0.2,0.5c0,0.1,0.2,0.6,0.2,0.7c0.1,0.3,0.2,0.5,0.3,0.8 c0,0.1,0.3,0.8,0.3,0.9s0,0.2,0.1,0.2c0,0.1,0.1,0.2,0.1,0.3c0.1,0.2,0.1,0.4,0.1,0.6c0.1,0.2,0.1,0.2,0.1,0.2 c0.1,0,0.2-0.4,0.3-0.6c0-0.2,0.1-0.4,0.2-0.6c0.1-0.3,0.6-1.5,0.6-1.8c0.1-0.2,0.1-0.5,0.2-0.7c0.1-0.4,0.2-0.7,0.6-0.7 c0.2,0,1.1,0,1.4,0c0.1,0,0.8,0,0.9,0c0.2,0,0.6,0,0.6,0.5c0,0,0,0.1,0,0.1c0,0.2-0.1,1.4-0.1,1.5c0,0.2,0,1.2,0,1.4 c0,0.2,0,1.4,0,1.6v0.7c0,0.4,0,1.5,0,1.5c0,0.3,0,1.5,0,1.8c0,0.2-0.1,1.3-0.1,1.5v0.5c0,0.1,0.1,0.9,0.1,1 c0,0.5-0.1,0.8-0.6,0.8c-0.1,0-0.8,0-1,0c-0.1,0-0.6,0-0.7,0c-0.7,0-0.7-0.5-0.7-0.6c0-0.1,0-0.5,0-0.6c0-0.2,0-0.4,0-0.6v-1 c0-0.2,0-1.3,0-1.6c0-0.1,0-0.6,0-0.7c0-0.1,0-1.2,0-1.3v-0.3c0,0,0-0.1-0.1-0.1c0,0,0,0,0,0c-0.1,0-0.1,0-0.2,0.3 c0,0.1,0,0.1,0,0.2c0,0.1-0.1,0.2-0.1,0.2c0,0.1-0.2,0.8-0.3,0.9c-0.1,0.3-0.2,0.7-0.4,1c-0.1,0.2-0.2,0.4-0.3,0.6 C5,41.2,5,41.3,4.8,41.3c-0.2,0-0.4-0.1-0.6-0.5c-0.1-0.2-0.1-0.4-0.2-0.6c-0.1-0.3-0.2-0.6-0.4-0.9c-0.1-0.3-0.2-0.5-0.3-0.8 c-0.2-0.8-0.3-0.8-0.3-0.8c-0.1,0-0.1,0.1-0.1,0.2c0,0,0,0.3,0,0.3c0,0,0,0.3,0,0.3c0,0.1,0,0.3,0,0.4c0,0.3,0.1,1.2,0.1,1.4 L2.9,41.1z"></path> <path id="Tracé_11" d="M11.6,31.2c0.2,0,1,0,1.2,0c0.1,0,0.6,0,0.6,0c0.2,0,0.6,0.1,0.6,0.5c0,0.6,0,1.5,0,2c0,0.2,0,1.2,0,1.4 c0,0.3-0.1,1.7-0.1,2.1c0,0.2,0.1,1.1,0.1,1.3c0,0.3,0,0.8,0,1.1c0,0.1,0,1,0,1.1c0,0.5,0.1,0.8,0.7,0.8c0.5,0,0.8-0.2,0.8-0.8 v-1c0-0.1,0-0.4,0-0.6c0-0.1,0-1.1,0-1.3c0-0.1,0-0.9,0-1c0-0.3,0-1.6,0-1.9c0-0.2,0-1.4,0-1.7c0-0.1,0-0.8,0-1V32 c0-0.1,0-0.3,0-0.4c0-0.4,0.3-0.4,0.6-0.4c0.1,0,0.8,0,1,0c0.1,0,0.6,0,0.7,0c0.3,0,0.6,0.2,0.7,0.5c0,0,0,0.1,0,0.1 c0,0.1,0,0.5,0,0.6c0,0.2,0.1,1.2,0.1,1.4c0,0.1,0,0.8,0,0.9c0,0.2,0,0.9,0,1.1s-0.1,1.1-0.1,1.3c0,0.2,0,1.1,0,1.3 c0,0.2-0.1,1.4-0.1,1.7c0,0.1,0,0.9,0,1.1c0,1-0.5,1.9-1.3,2.5c-0.6,0.5-1.4,0.7-2.2,0.7c-1.7,0-2.3-0.4-2.8-0.8 c-0.7-0.6-1-1.5-0.9-2.5c0-0.5,0-0.9,0-1.4c0-0.2-0.1-1.5-0.1-1.8c0-0.5,0-0.9,0-1.4c0-0.2,0-1.1,0-1.3c0-0.1,0-0.4,0-0.5 c0-0.2,0-0.4,0-0.7c0-0.1,0-0.1,0-0.5c0-0.3,0-0.5,0-0.9c0-0.1,0-0.8,0-0.9C11.1,31.3,11.5,31.2,11.6,31.2"></path> <path id="Tracé_12" d="M19.6,35.7c0-1,0.2-1.9,0.7-2.8c0.2-0.4,0.5-0.8,0.9-1.1c0.6-0.5,1.3-0.7,2.1-0.7c0.5,0,0.9,0,1.4,0.1 c0.3,0.1,0.5,0.3,0.5,0.6c0,0.1,0,0.4,0,0.5c0,0.2,0,1.1,0,1.3c0,0.1,0,0.6-0.5,0.6c-0.1,0-0.2,0-0.3-0.1 c-0.2,0-0.3-0.1-0.5-0.1c-0.5,0-0.9,0.2-1.1,0.7c-0.2,1-0.3,2-0.3,3c0,2.1,0.2,2.7,0.6,3.1c0.4,0.3,0.8,0.4,1.3,0.4 c0.8,0,0.8,0.3,0.8,0.7c0,0.1,0,0.7,0,0.8c0,0.1,0,0.7,0,0.9c0,0.2,0,0.4-0.1,0.5c-0.2,0.2-0.4,0.3-0.7,0.3c-0.1,0-0.2,0-0.3,0 c-0.9,0-1.7-0.1-2.5-0.5c-0.5-0.2-0.8-0.6-1.1-1c-0.8-1-0.9-2.5-0.9-5.1C19.5,37.2,19.6,36.5,19.6,35.7"></path> <path id="Tracé_13" d="M26,36.1c0,0.1,0,0.8,0,1s0,0.7,0,0.8c0,0.4,0.1,2.1,0.1,2.4c0,0.6,0,1.1,0.1,1.7 c0.1,0.6,0.3,1.1,0.7,1.6c0.7,0.7,1.6,1,2.5,1c0.9,0.1,1.9-0.2,2.6-0.8c1-0.9,1.3-2.2,1.3-4.2c0-0.9,0-1.9-0.1-2.8 c0-0.5,0-1,0-1.6c0.1-1.1-0.2-2.1-0.7-3c-0.3-0.4-0.7-0.6-1.1-0.8c-0.6-0.2-1.1-0.3-1.7-0.3c-0.7-0.1-1.4,0.1-2,0.4 c-0.6,0.3-1.1,0.8-1.4,1.4C26.1,34,26,35.1,26,36.1 M29.6,33.8c0.6,0,0.7,0.7,0.7,1c0,0.6,0.1,1.7,0.1,2.4c0,0.3,0,1.9,0,2.2 c0,0.2,0,1.1,0,1.3c0,0.6-0.2,1-0.7,1c-0.5,0-0.6-0.5-0.6-0.8C29,40.6,29,39.1,29,38.7c0-0.7,0-1.9,0-2.6c0-0.6,0-1.2,0.1-1.8 C29.1,34,29.3,33.8,29.6,33.8"></path> <path id="Tracé_14" d="M34.6,37.3c-0.2-0.8-0.4-1.6-0.5-2.5c-0.1-0.6-0.1-1.3-0.2-1.9c-0.1-0.4-0.2-0.8-0.2-1.2 c0-0.4,0.3-0.4,0.5-0.4c0.1,0,0.6,0,0.8,0c0.2,0,1-0.1,1.1-0.1c0.5,0,0.6,0.3,0.7,0.6c0.1,0.3,0.3,2,0.3,2.2 c0,0.3,0.1,0.7,0.1,1c0,0.4,0.1,0.8,0.1,1.2c0,0.4,0.3,2.5,0.3,2.9c0,0.1,0.1,0.6,0.1,0.6c0,0.1,0,0.4,0.1,0.4 c0.1,0,0.1-0.1,0.1-0.5c0-0.1,0.1-1.2,0.1-1.4c0-0.5,0.3-2.7,0.4-3.2c0-0.1,0-0.8,0.1-0.9c0-0.2,0.1-0.4,0.1-0.6 c0-0.4,0.1-0.8,0.1-1.2c0.1-1,0.1-1.2,0.9-1.2c0.2,0,1,0.1,1.1,0.1c0.1,0,0.2,0,0.4,0h0.4c0.3,0,0.4,0.2,0.4,0.5 c0,0.2,0,0.4-0.1,0.6c-0.1,0.6-0.3,2.1-0.3,2.2s0,0.4-0.1,0.6c0,0.1-0.4,2.5-0.5,2.7c-0.1,0.5-0.4,3-0.6,3.5 c-0.1,0.3-0.1,0.6-0.2,1c0,0.2-0.2,1.1-0.2,1.3c-0.1,0.3-0.1,0.7-0.6,0.7c-0.1,0-0.3,0-0.4,0c-0.4,0-0.8,0-1,0h-0.9 c-0.1,0-0.4,0-0.5,0c-0.4,0-0.4-0.3-0.5-0.5c0-0.2-0.2-1.1-0.3-1.3c-0.1-0.8-0.4-1.6-0.5-2.4c-0.1-0.5-0.2-1-0.3-1.5 C34.7,38.2,34.7,37.7,34.6,37.3"></path> <path id="Tracé_15" d="M43.3,31.3c0.1,0,0.7,0,0.9,0s0.9,0,1.1,0c0.4,0,0.4,0.4,0.4,0.5c0,0.1,0,0.2,0,0.4c0,0.2,0,0.5,0,0.7 c0,0.6,0,1.2,0,1.9c0,0.3,0,0.8,0,1.2c0,0.1,0,0.6,0,0.8c0,0.2,0,1.1,0,1.3s0,1.2,0,1.4c0,0.2,0,0.9,0,1.1 c0,0.3-0.1,1.8-0.1,2.1c0,0.3,0,0.5,0,0.8c0,0.2,0,0.3,0,0.5c0,0.3-0.2,0.5-0.4,0.5c-0.1,0-0.5,0-0.6,0c-0.2,0-1.2,0-1.5,0 c-0.4,0-0.4-0.5-0.4-0.7v0c0-0.3,0-1.5,0-1.8c0-0.6,0-1.5,0-2c0-0.3,0.1-2,0.1-2.3c0-0.2,0-1.1,0-1.3c0-0.1,0-0.8,0.1-1 c0-0.2,0-1.4,0-1.7c0-0.1,0-0.6,0-0.7c0-0.1,0-0.7,0-0.9C42.7,31.4,42.8,31.3,43.3,31.3"></path> <path id="Tracé_16" d="M46.7,42.7c0-0.1,0-0.5,0-0.6c0-0.1,0-0.4,0-0.4c0-0.1,0-0.3,0.1-0.4c0.1-0.2,0.4-0.3,0.6-0.3 c0.1,0,0.1,0,0.3,0.1c0.1,0,0.2,0.1,0.3,0.1c0.3,0.2,0.6,0.2,0.9,0.3c0.5,0,0.9-0.3,0.9-0.8c0,0,0-0.1,0-0.1 c0-0.4-0.3-0.7-0.8-1.2c-0.1-0.1-0.2-0.2-0.4-0.4c-0.2-0.2-0.3-0.3-0.4-0.5c-0.2-0.2-0.3-0.4-0.5-0.5c-0.2-0.3-0.4-0.5-0.5-0.8 c-0.4-0.7-0.6-1.4-0.6-2.2c-0.1-0.7,0.1-1.4,0.4-2.1c0.2-0.3,0.5-0.7,0.8-1c0.7-0.5,1.6-0.7,2.5-0.6c0.5,0,1,0,1.6,0.2 c0.3,0.2,0.3,0.4,0.3,1.3v0.9c0,0.1,0,0.3-0.1,0.4c-0.1,0.2-0.3,0.3-0.6,0.3c-0.1,0-0.1,0-0.3-0.1c-0.3-0.1-0.6-0.2-0.9-0.2 c-0.6,0-0.8,0.3-0.8,0.7c0,0.3,0.1,0.6,0.4,0.8c0.1,0.1,0.3,0.3,0.4,0.4c0.1,0.1,0.6,0.6,0.7,0.8c0.7,0.6,1.2,1.3,1.5,2.1 c0.3,0.7,0.4,1.4,0.4,2.2c0,1.6-0.9,3-2.4,3.5c-0.4,0.1-0.8,0.2-1.3,0.2c-0.5,0-1.1-0.1-1.6-0.2c-0.6-0.1-0.9-0.2-0.9-0.7 L46.7,42.7z"></path> <path id="Tracé_17" d="M53.8,35.7c0-1,0.2-1.9,0.7-2.8c0.2-0.4,0.5-0.8,0.9-1.1c0.6-0.5,1.3-0.7,2.1-0.7c0.5,0,0.9,0,1.4,0.1 c0.3,0.1,0.5,0.3,0.5,0.6c0,0.1,0,0.4,0,0.5c0,0.2,0,1.1,0,1.3c0,0.1,0,0.6-0.5,0.6c-0.1,0-0.2,0-0.3-0.1 c-0.2,0-0.3-0.1-0.5-0.1c-0.5,0-0.9,0.2-1.1,0.7c-0.2,1-0.3,2-0.3,3c0,2.1,0.2,2.7,0.6,3.1c0.4,0.3,0.8,0.4,1.3,0.4 c0.8,0,0.8,0.3,0.8,0.7c0,0.1,0,0.7,0,0.8c0,0.1,0,0.7,0,0.9c0,0.2,0,0.4-0.1,0.5c-0.2,0.2-0.4,0.3-0.7,0.3c-0.1,0-0.2,0-0.3,0 c-0.9,0-1.7-0.1-2.5-0.5c-0.5-0.2-0.8-0.6-1.1-1c-0.8-1-0.9-2.5-0.9-5.1C53.8,37.2,53.8,36.5,53.8,35.7"></path> <path id="Tracé_18" d="M61.4,31.3c0.1,0,0.7,0,0.9,0s0.9,0,1.1,0c0.4,0,0.4,0.4,0.4,0.5c0,0.1,0,0.2,0,0.4c0,0.2,0,0.5,0,0.7 c0,0.6,0,1.2,0,1.9c0,0.3,0,0.8,0,1.2c0,0.1,0,0.6,0,0.8c0,0.2,0,1.1,0,1.3s0,1.2,0,1.4c0,0.2,0,0.9,0,1.1 c0,0.3-0.1,1.8-0.1,2.1c0,0.3,0,0.5,0,0.8c0,0.2,0,0.3,0,0.5c0,0.3-0.2,0.5-0.4,0.5c-0.1,0-0.5,0-0.6,0c-0.2,0-1.2,0-1.5,0 c-0.4,0-0.4-0.5-0.4-0.7v0c0-0.3,0-1.5,0-1.8c0-0.6,0-1.5,0-2c0-0.3,0.1-2,0.1-2.3c0-0.2,0-1.1,0-1.3c0-0.1,0-0.8,0.1-1 c0-0.2,0-1.4,0-1.7c0-0.1,0-0.6,0-0.7c0-0.1,0-0.7,0-0.9C60.8,31.4,60.9,31.3,61.4,31.3"></path> <path id="Tracé_19" d="M65.4,32.3c0,0.2,0.1,1.2,0.1,1.4c0,0.8-0.1,2-0.1,2.7c0,0.6,0,1.2,0,1.7c0,0.2,0,1.3,0,1.5 c0,0.2,0,1.6,0.1,2.2c0,0.2,0,0.4,0,0.6c0,0.2-0.1,1-0.1,1.2c0,0.2,0,0.3,0.1,0.5c0.2,0.2,0.4,0.4,0.7,0.3c0.1,0,0.6,0,0.6,0 c0.3,0,0.9,0,1,0c0.2,0,0.9,0,1.1,0c0.7,0,1.3-0.2,1.9-0.5c0.6-0.4,0.9-0.7,1.3-2c0.1-0.4,0.2-0.9,0.3-1.4c0-0.3,0-0.6,0.1-0.9 c0-0.2,0-0.4,0.1-0.6c0-0.5,0.1-0.9,0.1-1.4c0-0.3,0-0.5,0-0.8c0-0.2-0.1-1.8-0.1-2c-0.1-0.8-0.3-1.5-0.7-2.2 c-0.5-0.8-1.4-1.4-2.3-1.3c-0.2,0-0.9,0-1.1,0h-0.9c-0.1,0-0.9,0-1,0C65.5,31.3,65.4,31.5,65.4,32.3 M68.7,34.1 c0.4,0,0.7,0.5,0.8,1.2c0,0,0.1,2.1,0.1,2.2c0,0.1,0,0.6,0,0.7c0,0.1,0,0.5,0,0.6c0,0.6,0,1.1-0.1,1.7c-0.1,0.3-0.2,0.5-0.4,0.7 c-0.1,0.1-0.3,0.1-0.4,0.1c-0.4,0-0.4-0.4-0.4-0.7c0-0.1,0-0.8,0-0.9c0-0.2,0-1.1,0-1.3c0-0.1,0-0.4,0-0.5c0-0.1,0-0.3,0-0.4 c0-0.1,0-0.6,0-0.7c0-0.1,0-0.7,0-0.9v-1.5c0-0.2,0-0.4,0.2-0.4C68.5,34.1,68.6,34.1,68.7,34.1"></path> <path id="Tracé_20" d="M73.8,36.1c0,0.1,0,0.8,0,1s0,0.7,0,0.8c0,0.4,0.1,2.1,0.1,2.4c0,0.6,0,1.1,0.1,1.7 c0.1,0.6,0.3,1.1,0.7,1.6c0.7,0.7,1.6,1,2.5,1c0.9,0.1,1.9-0.2,2.6-0.8c1-0.9,1.3-2.2,1.3-4.2c0-0.9,0-1.9-0.1-2.8 c0-0.5,0-1,0-1.6c0.1-1.1-0.2-2.1-0.7-3c-0.3-0.4-0.7-0.6-1.1-0.8c-0.6-0.2-1.1-0.3-1.7-0.3c-0.7-0.1-1.4,0.1-2,0.4 c-0.6,0.3-1.1,0.8-1.4,1.4C73.9,34,73.8,35,73.8,36.1 M77.4,33.7c0.6,0,0.7,0.7,0.7,1c0,0.6,0.1,1.7,0.1,2.4c0,0.3,0,1.9,0,2.2 c0,0.2,0,1.1,0,1.3c0,0.6-0.2,1-0.7,1c-0.5,0-0.6-0.5-0.6-0.8c-0.1-0.3-0.1-1.8-0.1-2.2c0-0.7,0-1.9,0-2.6c0-0.6,0-1.2,0.1-1.8 C76.9,33.9,77.1,33.7,77.4,33.7"></path> <path id="Tracé_21" d="M82.1,42.7c0-0.1,0-0.5,0-0.6c0-0.1,0-0.4,0-0.4c0-0.1,0-0.3,0.1-0.4c0.1-0.2,0.4-0.3,0.6-0.3 c0.1,0,0.1,0,0.3,0.1c0.1,0.1,0.2,0.1,0.3,0.1c0.3,0.2,0.6,0.2,0.9,0.3c0.5,0,0.9-0.3,0.9-0.8c0,0,0-0.1,0-0.1 c0-0.4-0.3-0.7-0.8-1.2c-0.1-0.1-0.2-0.2-0.4-0.4c-0.2-0.2-0.3-0.3-0.4-0.5c-0.2-0.2-0.3-0.4-0.5-0.5c-0.2-0.3-0.4-0.5-0.5-0.8 c-0.4-0.7-0.6-1.4-0.6-2.2c-0.1-0.7,0.1-1.4,0.4-2.1c0.2-0.3,0.5-0.7,0.8-1c0.7-0.5,1.6-0.7,2.5-0.6c0.5,0,1,0,1.6,0.2 c0.3,0.2,0.3,0.4,0.3,1.3v0.9c0,0.1,0,0.3-0.1,0.4c-0.1,0.2-0.3,0.3-0.6,0.3c-0.1,0-0.1,0-0.3-0.1C86.3,34.1,86,34,85.8,34 c-0.6,0-0.8,0.3-0.8,0.7c0,0.3,0.1,0.6,0.4,0.8c0.1,0.1,0.3,0.3,0.4,0.4c0.1,0.1,0.6,0.6,0.7,0.8c0.4,0.3,0.7,0.6,0.9,1 c0.2,0.3,0.4,0.7,0.6,1.1c0.3,0.7,0.4,1.4,0.4,2.2c0,1.6-0.9,3-2.4,3.5c-0.4,0.1-0.8,0.2-1.3,0.2c-0.5,0-1.1-0.1-1.6-0.2 c-0.6-0.1-0.9-0.2-0.9-0.7L82.1,42.7z"></path> <path id="Tracé_22" d="M95.6,43.5c0,0.3,0,0.8-0.6,0.9c-0.1,0-1.5,0-1.7,0c-0.1,0-0.6,0-0.7,0c-0.1,0-0.8-0.1-1-0.1 c-0.2,0-1.3,0.1-1.6,0.1c-0.3,0-0.6-0.2-0.7-0.6c0,0,0-0.1,0-0.1c0-0.1,0-1.9,0-2.3c0-0.4-0.1-2.4-0.1-2.9c0-0.2,0-1,0-1.2 c0-0.5,0-1.1,0-1.6c0-0.2,0-1.2,0-1.4c0-0.2,0-0.9,0-1.1v-0.7c0-0.1,0-0.6,0-0.7c0-0.3,0.2-0.6,0.5-0.7c0.1,0,0.1,0,0.2,0 c0.1,0,0.2,0,0.4,0c0.2,0,0.3,0,0.4,0c0.3,0,1.5-0.1,1.8-0.1c0.2,0,1.2,0,1.4,0c0.2,0,0.4,0,0.6,0c0.7,0,0.8,0.3,0.8,0.9 c0,0.2,0,0.4,0,0.6c0,0.1,0,0.5,0,0.6c0,0.6-0.2,0.8-0.8,0.8c-0.1,0-0.3,0-0.5,0h-0.3c-0.1,0-0.3,0-0.4,0c-0.1,0-0.6,0-0.7,0 c-0.2,0-0.3,0.1-0.4,0.2c-0.1,0.1-0.1,0.2-0.1,0.7c0,0.1,0,0.5,0,0.6c0,0.4,0.1,0.6,0.7,0.6c0.2,0,0.8,0,1.2,0 c0.1,0,0.3,0,0.4,0c0.2,0,0.5,0.1,0.7,0.2c0.1,0.1,0.1,0.2,0.1,1.2c0,0.1,0,0.5,0,0.6c0,0.7-0.3,0.9-0.8,0.9 c-0.1,0-0.9-0.1-1.1-0.1c-0.9,0-1.1,0.1-1.1,0.4c0,0.1,0,0.6,0,0.7c0,0.1,0,0.5,0,0.6c0,0.7,0.2,0.8,0.6,0.8c0.1,0,0.7,0,0.8,0 c0.1,0,0.5,0,0.6,0c1.3,0,1.3,0.1,1.3,1.1L95.6,43.5z"></path> <path id="Tracé_23" class="st1" d="M77.1,5.8H77V5.6h0.2C77.2,5.7,77.2,5.8,77.1,5.8 M76.7,7.7c-0.3-0.2,0.2-0.6,0.1-0.8V6.5 c0.2,0,0.2,0.3,0.3,0.4C76.8,7.1,77.6,8.1,76.7,7.7 M77,8.3l-0.1-0.1H77V8.3z M76.7,12.7c-0.1,0.1-0.2,0.1-0.3,0.1 c-0.3-0.2,0-0.4,0-0.6C76.5,12.3,76.8,12.4,76.7,12.7 M76.4,11L76.4,11l0.1,0.2h-0.1V11z M48.3,19.8c-0.2-0.1-0.2,0.1-0.3,0.2 v0.4h-0.1c-0.3-0.4,0.3-0.5,0.2-1c0.1-0.1,0.4-0.3,0.5-0.1C48.8,19.6,48.5,19.7,48.3,19.8 M28.5-0.4L28.5-0.4l-0.1-0.1h0.1V-0.4 z M28,0.4h-0.2c0-0.2,0.2-0.1,0.3-0.2c0,0,0.1,0.1,0.1,0.1C28.2,0.4,28.1,0.4,28,0.4 M27.8,1.2c-0.1,0.2-0.3,0.3-0.5,0.3 c-0.1-0.4,0.5-0.7,0.2-1c0.2-0.1,0.4,0,0.6,0.2C28.1,1,27.9,1,27.8,1.2 M27.1,2.5c-0.2,0.1-0.2,0.5-0.5,0.4 c-0.1-0.1-0.3-0.2-0.3-0.4C26.7,2.5,27.3,1.7,27.1,2.5 M27.8-0.1c0.1,0,0.2,0,0.2,0.1h-0.2V-0.1z M25.4,5.6 c-0.1-0.1-0.2-0.2-0.1-0.3c0.1-0.1,0.3-0.2,0.4-0.1C25.9,5.4,25.6,5.7,25.4,5.6 M78.1,4.1c-0.1,0-0.3-0.1-0.3,0.1 c-0.2,0.1-0.5,0.2-0.6-0.1l-0.4,0.4c-0.5-0.6-1.1,0.5-1.5-0.3c0-0.6,0-1.2-0.2-1.8h-1.3c-0.3-0.6-0.9,0-1.3-0.2 c-0.2-0.1-0.3-0.3-0.3-0.5c-0.5-0.2-0.8-0.6-1.3-0.4c-0.8,0.1-0.1-1.1-1-0.8c-0.1,0.4-0.8,0-0.7,0.6c-0.2,0.3-0.6,0.5-0.9,0.4 c0-0.5-0.1-1.1,0.5-1.3c0.1-0.2,0-0.5-0.2-0.7c0,0,0,0,0,0l-0.2,0.2c-0.3,0.1-0.7-0.1-0.7-0.4l-0.2,0.2 c-0.2-0.1-0.4,0.1-0.5-0.1c0-0.2-0.1-0.4,0.1-0.5c-0.4,0.1-0.8,0.3-1.1,0.6c-0.7-0.1-0.3-0.9-0.8-1.1c-0.2,0.6-1,0-1.1,0.6 c-0.2-0.1-0.3-0.4-0.7-0.5c-0.8,0.2-1.1,1.1-1.4,1.7c-0.5,0.3-0.3,1-0.9,1.2c0.1,0.6-0.7,0.7-0.7,1.3c-0.1,0.2-0.3,0.3-0.5,0.3 c0,0.5-0.5,0.8-0.5,1.2c-0.1,0.1-0.1,0.2-0.2,0.1c-0.6,0.5-1,1.2-1.3,1.9c-0.1,0.3-0.6,0.5-0.7,0.7c-0.2,0.5-0.8,0.7-0.6,1.2 c-0.1,0.4-0.6,0.6-0.7,1c-0.6,0.5-0.7,1.3-1.2,2c-0.2,0.2-0.8,0.3-0.6,0.8c-0.6,0.3-0.7,1-1.2,1.3c-0.1-0.2-0.1-0.4-0.2-0.5 c0.1-0.1,0.1-0.2,0.2-0.1v-0.2c-0.3-0.2-0.4,0.3-0.7,0.5c-0.2,0.5-0.4,1-0.6,1.5h0.1c0.2-0.2,0.4-0.4,0.4-0.7 c0.1-0.1,0.3-0.4,0.5-0.3c0.1,0.1,0.3,0.2,0.3,0.3c-0.8,0.1-0.6,1.1-1.2,1.3c0.4,0.6-0.6,0.6-0.5,1.1c0.3,0.5-0.5,0.3-0.4,0.8 c-0.5,0.5-0.6,1.2-1.3,1.3c0.1,0.3-0.1,0.4-0.1,0.7c-0.2,0.2-0.4,0.6-0.7,0.5c-0.5-0.4,0-0.9-0.1-1.5c0.9-0.5-0.6-0.8,0-1.4 c0.6-0.5-0.5-1.1,0.5-1.4c-0.2,0.1-0.3-0.1-0.4-0.1c0.1-0.2,0-0.6,0.2-0.8c-0.3-0.5,0-1.2-0.1-1.7c0.4-0.5-0.3-1.2,0.3-1.5 l-0.5-0.6l0.5-0.6c-0.1-0.9,0.4-1.8,0.2-2.8c0.5-0.3-0.1-0.7-0.1-1.1c0.4-0.6,0-1.2,0.3-1.8c-0.1-0.3-0.5-0.2-0.7-0.4 c0-0.2-0.1-0.5,0.2-0.5c0.3-0.3-0.2-0.3-0.3-0.4c-0.5-0.8-1.4-0.4-2-0.9c0.1-1.5-1-0.1-1.6-1c0.1,0.7-0.7,0.3-0.9,0.7 C44.1,1.5,44,1.1,43.8,1c0.1-0.8-0.8-1-0.7-1.8c-0.5,0.1-0.7,0.4-1,0.7c-0.4,0-0.3,0.7-0.8,0.4c0.1,0.7-0.4-0.2-0.7,0.2 c0-0.2,0-0.3-0.3-0.4c-0.2-0.4,0.4-0.1,0.4-0.4c-0.1-0.2-0.3-0.5-0.5-0.3l0.1,0.1c0.1,0.2-0.2,0.3-0.3,0.4 c-0.3-0.5-0.9-0.1-1.1-0.6c-0.3-0.3,0.4-0.2,0.3-0.5c-0.7,0-1.3,0.2-1.9,0.5c-0.2,0.2-0.2,0.6-0.5,0.5c-0.3-0.6,0.1-1.3,0.4-1.8 c-0.4,0-0.6,0.4-1.1,0.3c-0.2-0.2-0.4-0.4-0.6-0.7c0.2-0.1,0.4-0.3,0.4-0.5c0,0-0.1-0.1-0.1-0.1c-0.1,0.2-0.2,0.4-0.3,0.6 c-0.3,0-0.5-0.3-0.6-0.5c-0.6-0.2-0.6,0.6-1.1,0.5c-0.6-0.3-0.1-1.2-0.8-1.6c-0.2,0-0.2,0.2-0.3,0.3c-0.2,0.3-0.5,0.4-0.8,0.3 c-0.5-0.6-1.4-0.1-2,0.1c0,0.1,0,0.3,0.1,0.3c0,0.3-0.1,0.4-0.3,0.6l0.1,0.1C30-2,29.8-2,29.7-1.8C29.1-1.9,29.5-1.2,29-1 c-0.3,0.1-0.6,0.3-0.9,0.2c0.4-0.7,0.7-1.4,0.9-2.2c0.5,0,0.4-0.6,0.7-0.8l-0.1-0.1c-0.1-0.3,0.2-0.5,0.3-0.7v-0.3 c-0.8,0-0.8,1-1.3,1.5c0.1,0.5-0.3,0.9-0.4,1.4c-0.5,0.1-0.4,0.6-0.6,0.9c-0.3,1.2-0.9,2.3-1.7,3.3c0,0.3-0.3,0.8,0,1.1 c0.1,0,0.2,0,0.2-0.1c0.2-0.1,0.6-0.4,0.7,0c0,0.5-0.5,0.7-0.7,1c0,0.2,0.3,0.2,0.3,0.4c-0.3,0.1-0.5,0.5-0.8,0.1 c0-0.1,0.1-0.2,0.1-0.3l-0.2-0.1l0.1-0.3c-0.7-0.3-0.1,0.8-0.8,0.7c-0.1,0.6-0.9,1.2-0.5,1.8c0.2-0.2,0.5-0.4,0.7-0.8 C26.1,6,25,6.7,25.1,7.3c-0.4,0.2-0.8,0.5-1.3,0.3c-0.8-0.1-0.4,1-1,1.1c0.1,0.4-0.4,0.8-0.5,1.3c-0.3,0.5-0.1,1-0.5,1.4 c0.1,0.5-0.4,0.8-0.3,1.3c-0.3,0.1-0.1,0.6-0.4,0.7c0.2,0.5-0.6,0.8-0.7,1.3c-0.1,0.1-0.2,0.1-0.3,0.1c0.1,0.6-0.4,0.8-0.3,1.3 c-0.5,0.6-0.7,1.4-0.8,2.2c-0.3,0.4-0.4,0.8-0.7,1.2c0,0.6-0.7,1.1-0.6,1.6c0.5-0.1,1.1-0.2,1.6-0.1c0.2-0.2,0.6,0.1,0.8-0.2 c0.2,0.1,0.5,0,0.6,0.3c0.6-0.3,1.1,0,1.7-0.3c1.1,0.6,2.3-0.1,3.6,0.1c0.6,0.3,1.2-0.1,1.9,0.1c1.2-0.1,2.5-0.2,3.8-0.1 l0.2-0.1c-0.1-0.5,0.5-0.7,0.3-1.2c0.3-0.3,0.2-0.9,0.4-1.3c0.4-0.5,0.4-1,0.8-1.5c0,0.3,0.6,0.7,0,1c-0.2,0.3,0.2,0.6,0.3,0.9 c0.2,0.2-0.3,0.3-0.3,0.3c-0.2,0.7-1,1.2-0.9,1.9c0.1-0.1,0.4-0.1,0.3-0.3c0.5-0.2,0.1-0.8,0.7-1.1c0.2,0,0.4-0.1,0.5,0.1 c0,0.1-0.1,0.1-0.1,0.2c0.2,0.5-0.6,0.8,0.1,1.1c0.6,0.6,1.3-0.1,2,0.3c0.1-0.1,0.2-0.3,0.4-0.2c0.4,0.3,1.1,0,1.6,0 c0.1,0.1,0.2,0.3,0.4,0.2c0-0.1,0.1-0.1,0.1-0.1c1.9-0.1,3.7-0.1,5.6,0.1c0.5,0.1,1.1,0,1.6-0.1c1.6,0,3-0.1,4.7,0.1v0.1 c0.3,0.2,0.6-0.2,0.8,0c0.8,0.2,1.6-0.4,2.3,0c0.5-0.3,1.1,0,1.6-0.3c0.1,0,0.3,0,0.3,0.1c0.6,0.1,1.1,0,1.6,0.1 c0.6-0.1,1.3-0.2,1.9-0.1c0.2,0.5,0.5-0.2,0.8,0.2c0.4-0.4,0.8,0.2,1.2-0.2h4.6c0.3,0.3,0.7,0,1-0.1c0.8,0.6,1.3-0.1,2.1,0.3 c0.1-0.2,0.3-0.3,0.4-0.2c0.1,0,0.1,0.1,0.2,0.1c0.2,0.2,0.4-0.1,0.7-0.1c0.6-0.1,0.9,0.2,1.3,0c1.4-0.1,2.9-0.1,4.4,0l0.3-0.1 c-0.2-0.2,0.1-0.6-0.2-0.8c-0.1-0.4,0.1-0.8,0.4-1c0-0.3,0.4-0.6-0.1-0.8c-0.3-0.4,0.2-0.7,0.4-1c-0.3-0.4,0.1-1.1-0.3-1.5 c0.1-0.6,0.1-1.1,0-1.7c0.5-0.3-0.1-1.1,0.4-1.2c0.1,0.1,0.2,0.3,0.4,0.3c0,0.2-0.3,0.3-0.3,0.5c0.4,0.7-0.2,1.5,0.3,2.3 c0.2,0,0.3-0.1,0.5-0.2c-0.1-0.7-0.1-1.4,0.1-2.1c-0.1-0.3,0-1-0.5-0.8c0.1-0.4,0.4,0.1,0.4-0.4c0.1-0.5,0.1-1.1,0.1-1.6 c0.2-1.3,0.2-2.8,0.4-4c-0.2-0.4-0.1-0.8,0.2-1.1C77.8,5.1,78.5,4.7,78.1,4.1"></path> <path id="Tracé_24" class="st1" d="M49.7,15.1c0.2-0.2,0.1-0.4-0.1-0.5c0.1-0.1,0.3-0.2,0.2-0.3c-0.7-0.2-0.1,0.5-0.8,0.7 l0.3,0.3C49.5,15.3,49.6,15.1,49.7,15.1"></path> <path id="Tracé_25" class="st1" d="M31.7-3.8c0.1-0.1,0.4-0.1,0.3-0.3c-0.1-0.2-0.4-0.1-0.5,0.1C31.2-3.9,31.6-3.8,31.7-3.8"></path> <path id="Tracé_26" class="st1" d="M36.7-3.2c-0.1-0.2-0.4,0-0.3,0.2C36.5-3,36.7-3,36.7-3.2"></path> <path id="Tracé_27" class="st1" d="M37.6-2.3h-0.2v0.2C37.5-2.2,37.7-2.1,37.6-2.3"></path> <rect id="Rectangle_1" x="64.8" y="-2.2" class="st1" width="0.1" height="0.1"></rect> <path id="Tracé_28" class="st1" d="M39.6-0.8L40-0.7C40.1-0.9,39.7-1,39.6-0.8"></path> <path id="Tracé_29" class="st1" d="M54.8,9.1L54.8,9.1v0.1V9.1z"></path> <path id="Tracé_30" class="st1" d="M50.1,9.7c0.1,0,0.1-0.1,0.1-0.2H50C50,9.6,50,9.7,50.1,9.7"></path> <path id="Tracé_31" class="st1" d="M50.2,10.3c-0.1-0.1-0.3-0.1-0.3,0.1C50,10.3,50.2,10.4,50.2,10.3"></path> <path id="Tracé_32" class="st1" d="M49.8,10.7l-0.1,0.4h0.1C50,11,49.8,10.9,49.8,10.7"></path> <path id="Tracé_33" class="st1" d="M53.6,10.8c-0.2,0.1-0.7,0.5-0.4,0.9C53.5,11.5,53.5,11.1,53.6,10.8"></path> <path id="Tracé_34" class="st1" d="M49.7,13.4l-0.3,0.3c0.1,0,0.3,0.3,0.5,0.1V13h-0.2c-0.1,0.1-0.2,0.2-0.1,0.3 C49.6,13.3,49.6,13.4,49.7,13.4"></path> <path id="Tracé_35" class="st1" d="M51.2,14.4c-0.1,0-0.2,0.1-0.1,0.2C51.1,14.6,51.2,14.6,51.2,14.4"></path> <path id="Tracé_36" class="st1" d="M77.1,16.6c0,0.3,0,0.9,0.3,0.9C77.2,17.2,77.7,16.6,77.1,16.6"></path> <rect id="Rectangle_2" x="77.3" y="19.6" class="st1" width="0.1" height="0.1"></rect> <path id="Tracé_37" class="st1" d="M77.4,20.2v0.3h0.1C77.5,20.4,77.6,20.2,77.4,20.2"></path> <rect id="Rectangle_3" x="76.4" y="20.7" class="st1" width="0.1" height="0.1"></rect> <path id="Tracé_38" class="st1" d="M45.7,54.9c-0.2,0.1-0.2-0.1-0.3-0.2C45.5,54.5,45.7,54.8,45.7,54.9 M55.8,46.1 c-0.3,0.1-0.8-0.1-1,0.1c-0.8-0.2-1.3,0-2-0.1c-0.7-0.2-1.6,0.4-2.1-0.2c-0.2,0-0.4,0-0.6,0.2c-0.2,0-0.4,0.1-0.5-0.1 c-0.6,0.6-0.9-0.4-1.6-0.1c-0.3,0.4-0.8,0-1.1,0.3c-0.8-0.3-1.3,0.1-2-0.1c-0.6-0.1-1.5,0.3-2-0.2c-0.6,0.3-1.2,0-1.8,0.3 c-1.1-0.6-2.4,0-3.6-0.2l-0.2-0.2c-0.1,0-0.3,0-0.3,0.1c-0.5-0.1-0.9-0.1-1.4,0c-0.4-0.1-0.8,0.3-1.3-0.1L31.7,46 c0.4,1.5-1.1,4.3,1.3,4.6c0.6,0.8,1.7,0.7,2.5,1.2c0,0.6,0.7,1,1.1,1.4c0.4,0.2,0.9-0.3,1.2,0.1c0.1,0.6,0.9,0.5,1,1.1 c0.1,0,0.3,0,0.3-0.1c0.4-0.1,0.6,0.2,0.9,0.3c0.4,0.3,0.4-0.3,0.5-0.5c0.3-0.1,0.6,0.1,0.9-0.1c0.4,0.2,0.5,0.9,1.1,1 c0.6-0.1,0.9,0.6,1.4,0.5c0.8,0.3,0.1-0.7,0.8-0.7c0.3,0.1,0.2,0.5,0.5,0.6c0.5,0.3,0.9-0.2,1.3-0.4c1-1.3-0.9-0.4-1.2-1.2 l0.4-0.4c0.3-0.1,0.4,0.1,0.5,0.3c0.1,0,0.2,0,0.2-0.1l-0.1-0.1c-0.1-0.2,0.1-0.2,0.2-0.3c-0.1-0.4,0-1-0.5-1.2 c0.2-0.5,0-0.6-0.3-0.8l0.2-0.2c0.3,0.3,0.8-0.1,1,0.3c0.2,0,0.5,0,0.7-0.1c0.7,0.5,1.1-0.7,1.8-0.3c0.4,0.7,1.4,0,2,0.6 c0.3-0.4,0.4,0.2,0.8,0c0.5-0.5,0.6,0.5,1.1,0.1c0.4-0.2,0.6-0.6,0.5-1c0.3-0.8,1.1-1,1.3-1.8c0-0.5,0.2-1,0.2-1.5 c0.1-0.4,0.4-0.6,0.8-0.7C55.7,46.5,55.9,46.2,55.8,46.1"></path> <path id="Tracé_39" class="st1" d="M22.3,46.2c-0.4,0-0.8-0.3-1.1,0c-0.9-0.1-1.9-0.2-2.9-0.1c-0.1-0.1-0.2-0.1-0.1-0.2 c-0.2,0-0.4,0-0.6,0.1c-0.5-0.1-1.1,0.4-1.5-0.1c-0.3,0.1-0.8-0.2-0.9,0.2c-0.8,0-1.4,0.1-2.1,0.1c-0.9-0.1-1.8-0.2-2.7-0.1 C9.9,45.5,9.5,46.4,9,46c-0.5,0.7-0.8,1.5-0.9,2.3c-0.3,0.5-0.5,1-0.7,1.5c-0.9,0.4,0.1,1.5-0.8,1.9c-0.9,0.3-1,1.5-1.6,2 c0,0.3-0.1,0.7,0.2,0.9c0.5,0.6-0.1,1.1-0.1,1.7c0.7,0.4,1.4-0.2,2,0.5c0.3,0.3-0.3,0.6,0,0.9c0.4,0.2,0.8,0.1,1.1-0.2 c0.3-0.2,0.6,0.1,0.8,0.1c0.8,0.2,1.6,0,2.2-0.6c1.1,0.3-0.4,1,0.6,1.2c0.7,0.3,1.3,0.7,1.9,1.3c0.3,0.1,0.6-0.3,1.1-0.1 c0.2,0.1,0.7,0.3,0.4,0.6c0.2,0.2,0.3,0.4,0.6,0.3c0.3-0.4,0.8-0.4,1.1-0.6c0.6-0.5,0.8,0.4,1.1,0.6c0.4,0.1,0.4-0.4,0.5-0.6 c0.5-0.2,0.6-0.8,0.9-1.2c0.4-0.6-0.2-1.5,0.2-2c0.1-0.2-0.2-0.3-0.3-0.3c-0.1-0.3,0.2-0.5,0.3-0.7c0.3-0.3,0-0.5,0-0.9 c0.3-0.6,0.6-1.2,0.9-1.7c-0.2-0.5,0.4-0.6,0.2-1.1c0.3-0.3,0.2-0.8,0.6-1.1c0-0.2,0-0.4-0.1-0.5c0.1-0.4,0.8-0.7,0.5-1.1 c0.1-0.5-0.2-1.1,0.2-1.5C22.7,47.5,22.1,46.7,22.3,46.2"></path> <path id="Tracé_40" class="st1" d="M24.2,46.4c-0.4,0.7-0.7,1.5-0.8,2.4c-0.6,0.3-0.1,1.1-0.8,1.4l0.3,0.1 c0.1,0.1-0.1,0.1-0.1,0.2c0.3,0.5-0.5,0.8-0.1,1.3c1.3,0,0-1.4,1.1-1.5c0.4-0.5-0.1-1,0.4-1.4c-0.2-0.8,0.6-1.2,0.4-1.9 c0.1-0.3,0.4-0.3,0.3-0.6C24.8,46.1,24.2,45.9,24.2,46.4"></path> <path id="Tracé_41" class="st1" d="M55.8,47.3c0-0.1,0.1-0.1,0.1-0.1h-0.1V47.3z"></path> <path id="Tracé_42" class="st1" d="M60.3,49c-0.2,0.2-0.2,0.5,0,0.7c0,0,0,0,0,0C60.5,49.5,60.5,49.3,60.3,49"></path> <path id="Tracé_43" class="st1" d="M59.9,50.3v0.2c0.2,0.2,0.4,0.3,0.6,0.1v-0.3C60.5,49.9,60.1,50.4,59.9,50.3"></path> <path id="Tracé_44" class="st1" d="M60.1,51.1c0,0.3-0.3,0.6,0,0.8l0.3-0.3C60.2,51.5,60.3,51.3,60.1,51.1"></path> <path id="Tracé_45" class="st1" d="M48.7,51.8c-0.1,0.1-0.1,0.5,0.2,0.5c0.2-0.1-0.1-0.5,0.2-0.5v-0.2 C48.9,51.3,48.8,51.6,48.7,51.8"></path> <path id="Tracé_46" class="st1" d="M54.1,51.8c0.1-0.1,0.2-0.1,0.1-0.3C54.2,51.6,54,51.7,54.1,51.8"></path> <path id="Tracé_47" class="st1" d="M60.2,52L60.2,52l-0.1,0.3C60.2,52.2,60.2,52.1,60.2,52"></path> <rect id="Rectangle_4" x="60" y="52.4" class="st1" width="0.1" height="0.3"></rect> <path id="Tracé_48" class="st1" d="M45.7,54.9c0-0.1-0.2-0.4-0.3-0.2C45.5,54.8,45.6,55,45.7,54.9"></path> <path id="Tracé_49" class="st1" d="M21.5,55.1c-0.2,0.3-0.5,0.7-0.7,1.1c0,0.6-0.2,1.2-0.5,1.7c0,0.7-0.1,1.5-0.3,2.2 c-0.1,0.1,0.1,0,0.1,0.1c0.4-0.2,0.7-0.7,0.7-1.1c-0.7-0.3,0.1-0.7,0-1.2c0.4-0.4,0.1-1.1,0.5-1.5C21.3,56,21.8,55.4,21.5,55.1"></path> <path id="Tracé_50" class="st1" d="M75.1,47.4c-0.4,0-0.3,1-0.7,0.3c-0.1-0.3,0.2-0.5,0.3-0.7C74.8,47.2,75.2,47.2,75.1,47.4 M75,50.8c-0.2-0.1-0.8,0.1-0.7-0.4c0.1,0,0.3-0.3,0.4-0.1l-0.1,0.3c0.2,0.1,0.3,0.2,0.5,0.1V50.8z M74.4,51.4L74.4,51.4 l-0.1-0.1h0.1V51.4z M74.1,49.8c0.5-0.3-0.2-0.7,0.4-1h0.1c0.2,0.3-0.1,0.8,0.3,1.1c-0.1,0.2-0.2,0.1-0.3,0.2 C74.4,50,74.2,50,74.1,49.8 M75.7,48c0.3-0.6-0.2-1-0.3-1.6c-0.3-0.1-0.4,0.3-0.7,0.4c-0.5,0.1-0.4-0.5-0.7-0.8 c-0.4,0.1-0.8-0.1-1.1,0.1c-0.8-0.2-1.3,0-2-0.1c-0.6-0.1-1.5,0.3-2-0.2c-0.5-0.1-0.9,0.4-1.3,0.1c-0.6,0.5-0.8-0.5-1.5-0.1 c-0.3,0.4-0.9,0-1.2,0.3c-0.5-0.1-1,0-1.5-0.1c-0.6,0-1.3,0-1.9,0.1c0,0.1-0.1,0.3,0.1,0.4c-0.6,0.3,0.3,0.8-0.2,1.1 c-0.7,0.4,0.3,0.7-0.1,1.3c0.3,0.4-0.2,0.9-0.2,1.3c0.3,0.2,0,0.5-0.1,0.7c0.3,0.1,0,0.5,0.3,0.6c0,0.1,0.1,0.2-0.1,0.3 c-0.1,0.3-0.5,0.7-0.1,1c-0.1,0.6-0.4,1.1-0.5,1.8c0.3,0.3,0.1,0.9,0.1,1.3c0,0.5-0.1,0.9-0.3,1.3l-0.2-0.2 c-0.1,0.2-0.4-0.2-0.3,0.2c0.1,0,0.2,0,0.3-0.1c0.2,0.1,0.1,0.3,0.1,0.5c0.3,0.3,0.7-0.1,1.1-0.1c0.4,0.2-0.2,0.5,0.1,0.7 l0.9,0.1c-0.3,0.9,0.9,0.3,1.3,0.7c0.7-0.8,1.7,0,2.6,0.1v-0.7c0.1-0.2,0.3-0.4,0.5-0.5c0.6,0.1,1.4-0.4,1.7,0.5 c0.9,0.3,1.8,0.1,2.5-0.3L71,56.8c0.2-0.4,0.3,0.2,0.5,0c0.1-0.4,0.1-1.1,0.7-1.1c0.2,0.5,0.6-0.1,0.8,0.3l-0.5,0.3 c-0.1,0.2,0.1,0.3,0.2,0.4c0.1,0.2,0.2-0.1,0.3-0.1c-0.1-0.9,0.7-1,1.1-1.7c-0.2-0.2-0.4-0.4-0.4-0.7c0.3-0.4-0.4-0.8,0.3-1.1 c-0.1-0.4,0-0.9,0.3-1.2c0.1-0.1,0.4-0.3,0.5,0c-0.3,0.6,0,1.1-0.2,1.6c0.2,0.2,0.1,0.5,0.3,0.7c-0.2,0.1-0.1,0.3-0.3,0.4 c0.1,0.3-0.2,0.8,0.2,1.1c0,0.3,0,0.6-0.1,0.8c0.1,0.1,0.3,0.3,0.5,0.1c0.3-0.5-0.1-1.1,0.3-1.5c-0.3-0.2,0-0.4,0-0.6 c-0.3-0.5,0-1.1-0.2-1.7c0.7-0.3-0.3-0.7,0.2-1.1c-0.1-0.4,0.2-0.9-0.2-1.2C75.1,49.8,75.8,48.9,75.7,48"></path> <path id="Tracé_51" class="st1" d="M75,57.4v-0.1h-0.1L75,57.4z"></path> </g> </g> </g> </g> </svg> 