<?xml version="1.0" encoding="UTF-8"?> <!-- Generator: Adobe Illustrator 23.0.1, SVG Export Plug-In . SVG Version: 6.00 Build 0) --> <svg xmlns="http://www.w3.org/2000/svg" xmlns:xlink="http://www.w3.org/1999/xlink" version="1.1" id="Calque_1" x="0px" y="0px" viewBox="0 0 45.4 60.2" style="enable-background:new 0 0 45.4 60.2;" xml:space="preserve"> <style type="text/css"> .st0{fill:#FFFFFF;stroke:#FFFFFF;} </style> <g id="Groupe_222" transform="translate(0.5 0.5)"> <path id="Tracé_172" class="st0" d="M14,23.7c-0.4,0-0.7-0.3-0.7-0.7c0-0.1,0-0.2,0.1-0.4l1.2-2.1c0.2-0.3,0.7-0.4,1-0.2 c0.3,0.2,0.4,0.6,0.3,0.9l-1.2,2.1C14.5,23.6,14.2,23.7,14,23.7z"></path> <path id="Tracé_173" class="st0" d="M6.1,49.4c-1.2,0-2.3-0.5-3.2-1.4c-0.6-0.6-1.4-1-2.2-1C0.3,47,0,46.7,0,46.3 c0-0.2,0-0.2,5.3-9.5l6-10.5c0.2-0.4,0.6-0.5,1-0.3c0.4,0.2,0.5,0.6,0.3,1c0,0,0,0,0,0.1l-6,10.5c-2,3.5-3.8,6.7-4.7,8.2 c0.8,0.2,1.5,0.7,2,1.2c1.1,1.2,2.9,1.4,4.1,0.3c0.1-0.1,0.2-0.2,0.3-0.3c0.8-0.9,2-1.4,3.2-1.4c0.9,0,1.8,0.3,2.5,0.8 c0.3,0.2,0.4,0.7,0.2,1c-0.2,0.3-0.7,0.4-1,0.2c0,0,0,0,0,0c-0.5-0.4-1-0.5-1.6-0.5c-0.9,0-1.7,0.4-2.2,1 C8.4,48.9,7.3,49.4,6.1,49.4z"></path> <path id="Tracé_174" class="st0" d="M18.9,48.7c-0.4,0-0.7-0.3-0.7-0.7c0-0.2,0.1-0.4,0.3-0.6c0.2-0.1,0.4-0.3,0.6-0.5 c1.6-1.7,4.4-1.8,6.1-0.2c0.1,0.1,0.2,0.1,0.2,0.2c0.2,0.2,0.4,0.3,0.6,0.5c0.3,0.2,0.4,0.7,0.2,1c-0.2,0.3-0.7,0.4-1,0.2 c0,0,0,0,0,0c-0.2-0.2-0.5-0.4-0.7-0.6c-1.1-1.2-2.9-1.4-4.1-0.3c-0.1,0.1-0.2,0.2-0.3,0.3c-0.2,0.2-0.4,0.4-0.7,0.6 C19.2,48.7,19.1,48.7,18.9,48.7z"></path> <path id="Tracé_175" class="st0" d="M38.3,49.4c-1.2,0-2.3-0.5-3.2-1.4c-0.6-0.6-1.4-1-2.2-1c-0.6,0-1.2,0.2-1.6,0.5 c-0.3,0.2-0.8,0.2-1-0.1s-0.2-0.8,0.1-1l0,0c0.7-0.5,1.6-0.8,2.5-0.8c1.2,0,2.3,0.5,3.2,1.4c1.1,1.2,2.9,1.4,4.1,0.3 c0.1-0.1,0.2-0.2,0.3-0.3c0.6-0.6,1.3-1,2-1.2L38.8,39l-6.9-12.1c-0.2-0.3-0.1-0.8,0.2-1c0.3-0.2,0.8-0.1,1,0.2c0,0,0,0,0,0.1 L40,38.4c4.4,7.8,4.4,7.8,4.4,7.9c0,0.4-0.3,0.7-0.7,0.7l0,0c-0.8,0-1.7,0.4-2.2,1C40.7,48.9,39.5,49.4,38.3,49.4z"></path> <path id="Tracé_176" class="st0" d="M30.4,23.8c-0.3,0-0.5-0.1-0.6-0.4l-1.2-2.1c-0.2-0.3-0.1-0.8,0.2-1c0.3-0.2,0.8-0.1,1,0.2 c0,0,0,0,0,0.1l1.2,2.1c0.2,0.3,0.1,0.8-0.3,1C30.7,23.7,30.6,23.8,30.4,23.8L30.4,23.8z"></path> <path id="Tracé_177" class="st0" d="M22.2,10.2c-2.8,0-5.1-2.3-5.1-5.1S19.4,0,22.2,0c2.8,0,5.1,2.3,5.1,5.1c0,0,0,0,0,0 C27.3,7.9,25,10.2,22.2,10.2z M22.2,1.4c-2,0-3.7,1.6-3.7,3.7c0,2,1.6,3.7,3.7,3.7s3.7-1.6,3.7-3.7c0,0,0,0,0,0 C25.9,3.1,24.2,1.4,22.2,1.4z"></path> <path id="Tracé_178" class="st0" d="M29.1,59.2c-1.8,0-3.3-1.4-3.4-3.2l-2.5-24.2h-1.9l-2.5,24.3c-0.2,1.9-1.9,3.3-3.8,3.1 c-0.1,0-0.2,0-0.3-0.1c-1.8-0.4-2.9-2.1-2.7-3.8l2.6-24.8v-2.9c-0.3,0.1-0.5,0.2-0.8,0.3c-1,0.2-2.1-0.3-2.5-1.3l-3.3-5.9 c-0.7-1.2-0.3-2.8,0.9-3.5l8.8-5.3c3-1.5,6.4-1.5,9.4,0l8.8,5.3c1.2,0.7,1.6,2.3,0.9,3.5l-3.3,5.9c-0.5,0.9-1.5,1.4-2.5,1.3 c-0.3,0-0.6-0.1-0.8-0.3v2.9l2.6,24.9c0.2,1.9-1.2,3.6-3.1,3.8c0,0-0.1,0-0.1,0C29.2,59.2,29.2,59.2,29.1,59.2z M15.2,17.6 c0.4,0,0.7,0.3,0.7,0.7c0,0,0,0,0,0c0,0,0,0.1,0,0.1v12.1c0,0,0,0,0,0.1l-2.6,24.8c-0.1,1.1,0.6,2.1,1.6,2.3 c1.1,0.2,2.2-0.5,2.4-1.6c0-0.1,0-0.1,0-0.2L20,31c0-0.4,0.3-0.6,0.7-0.6h3.1c0.4,0,0.7,0.3,0.7,0.6L27,55.8c0.1,1.1,1,2,2.2,1.9 c1.1-0.1,2-1,1.9-2.2c0,0,0,0,0-0.1l-2.6-24.9c0,0,0,0,0-0.1V18.4c0,0,0-0.1,0-0.1c0-0.4,0.3-0.7,0.7-0.7c0.1,0,0.2,0,0.3,0.1 l2.9,1.6c0.3,0.2,0.5,0.6,0.3,1L30.2,25c-0.2,0.5,0,1.1,0.5,1.3c0.5,0.2,1.1,0,1.3-0.5l3.3-6c0.3-0.6,0.1-1.3-0.4-1.6L26.2,13 c0,0,0,0-0.1,0c-2.4-1.1-5.3-1.1-7.7,0c0,0,0,0-0.1,0l-8.8,5.3c-0.6,0.3-0.7,1-0.4,1.6l3.3,5.9c0.2,0.4,0.6,0.6,1.1,0.5 c0.4-0.1,0.8-0.4,0.8-0.8c0-0.2,0-0.4-0.1-0.6l-2.5-4.8c-0.2-0.3,0-0.8,0.3-1l2.9-1.6C15,17.6,15.1,17.6,15.2,17.6L15.2,17.6z M29.9,19.5v3l1.2-2.3L29.9,19.5z M13.3,20.2l1.2,2.3v-3L13.3,20.2z"></path> <path id="Tracé_179" class="st0" d="M25,15.5c-1,0-1.8-0.8-1.8-1.8v-2.2c0-0.4,0.3-0.7,0.7-0.7c0.4,0,0.7,0.3,0.7,0.7v2.2 c0,0.2,0.2,0.4,0.4,0.4c0.1,0,0.2,0,0.3-0.1l1.6-1.6c0.3-0.3,0.7-0.3,1-0.1s0.3,0.7,0.1,1c0,0-0.1,0.1-0.1,0.1L26.3,15 C25.9,15.3,25.5,15.5,25,15.5z"></path> <path id="Tracé_180" class="st0" d="M20,15.5c-0.5,0-0.9-0.2-1.3-0.5L17,13.3c-0.3-0.3-0.2-0.7,0.1-1c0.3-0.2,0.6-0.2,0.9,0 l1.6,1.6c0.1,0.1,0.2,0.1,0.3,0.1c0.2,0,0.4-0.2,0.4-0.4v-2.2c0-0.4,0.3-0.7,0.7-0.7c0.4,0,0.7,0.3,0.7,0.7v2.2 C21.8,14.7,21,15.5,20,15.5z"></path> </g> </svg> 