<?xml version="1.0" encoding="UTF-8"?> <svg xmlns="http://www.w3.org/2000/svg" width="442.76" height="433.362" viewBox="0 0 442.76 433.362"><g id="Groupe_164" data-name="Groupe 164" transform="translate(-1269 -1919.338)"><g id="Groupe_162" data-name="Groupe 162" transform="translate(1269 1919.338)"><path id="Tracé_159" data-name="Tracé 159" d="M5344.517,3850.464l8.929-7.427c1.341-1.116,2.959-2.3,4.661-1.918,1.9.433,2.823,2.594,3.179,4.513,2,10.786-4.392,21.51-3.914,32.469a3.364,3.364,0,0,1-.271,1.919,2.55,2.55,0,0,1-1.738,1.012c-2.443.495-4.932-.468-7.179-1.548-2.158-1.038-4.4-2.348-5.375-4.532a11.267,11.267,0,0,1-.441-5.688q.632-6.7,1.265-13.391Z" transform="translate(-4918.914 -3447.804)" fill="#fff"></path><path id="Tracé_160" data-name="Tracé 160" d="M1726.826,617.879a692.409,692.409,0,0,0,139.584,38.438,34.88,34.88,0,0,1,10.362-31.619c8.906-8.393,21.878-11.978,34.4-11.944s24.768,3.34,36.653,7.1c10.093,3.193,20.568,6.786,31.091,5.328,6.725-.932,12.954-3.885,18.791-7.2a138.282,138.282,0,0,0,32.028-25.054c1.613-1.7,3.286-3.774,2.909-6.041-.329-1.977-2.112-3.393-3.772-4.619L2006.433,565.7c-2.114-1.561-4.3-3.2-5.507-5.47-1.222-2.293-1.312-4.966-1.32-7.538a175.121,175.121,0,0,1,6.084-46.267c1.281-4.731,2.745-9.827.873-14.376-3.769-9.156-17.1-9.336-27.306-7.914-2.24-9.783,3.614-19.719,11.084-26.757s16.668-12.275,23.9-19.533c13.623-13.663,18.861-32.853,23.6-51.156l7.75-29.908c-24-17.145-63.238-2.062-85.351-21.381-5.683-4.965-9.416-11.68-15.011-16.736-14.579-13.176-38.688-12.689-53.238-25.9-6.975-6.332-10.917-15.124-17.294-22.006s-17.347-11.709-25.551-6.9c-16.758,9.823.662,41.676-16.447,50.931-5.062,2.738-11.282,2.038-17.1,2.222-15.011.475-31.527,10.882-30.455,25.168-10.112,4.061-21.919,2.592-31.971-1.6s-18.7-10.876-27.213-17.477a189.27,189.27,0,0,1,14.113,55.066l-36.779-2.976c-4.39-.355-8.852-.726-12.948-2.273-3.238-1.223-6.138-3.143-9.315-4.5-9.614-4.122-20.707-2.8-31.145-1.4-3.194.429-6.715,1.03-8.7,3.451a11.766,11.766,0,0,0-2.025,5.421q-2.209,11.478-4.418,22.956c-.428,2.224-.853,4.541-.214,6.719,1.306,4.454,6.616,6.769,11.46,7.005s9.657-1,14.506-.883c13.23.317,23.74,10.258,32.59,19.641q16.081,17.05,31.494,34.66c6.42,7.335,12.991,15.242,14.465,24.691.669,4.284.237,8.646-.2,12.956q-4.965,49.5-9.931,99Z" transform="translate(-1623.726 -253.93)" fill="#fff"></path><g id="Groupe_161" data-name="Groupe 161" transform="translate(0 0)"><g id="Groupe_159" data-name="Groupe 159" transform="translate(415.524 388.567)"><path id="Tracé_161" data-name="Tracé 161" d="M5238.367,3788.064c3.006-2.5,6-5.014,9.019-7.5.078-.065.948-.714.94-.733l-.2.139c.067-.045.133-.09.2-.133s.134-.086.2-.128c.2-.123.407-.238.62-.341.051-.024.293-.1.317-.141-.014.026-.45.14-.137.051a5.476,5.476,0,0,1,.544-.136c.058-.01.422-.084.079-.017-.321.063,0,.01.083.013s.187.017.281.023c.148.02.075.006-.215-.041.062.014.123.03.184.048s.119.038.178.059c.193.071.28.216-.1-.062.122.088.265.149.388.238.046.033.1.081.146.111-.417-.249-.233-.2-.1-.068a5.564,5.564,0,0,1,.369.419c.088.107.122.258-.11-.165.045.083.105.161.154.243.084.138.162.281.234.426s.127.268.185.4c.032.076.057.157.093.231-.244-.5-.083-.228-.035-.083a12.837,12.837,0,0,1,.481,2.194c.06.407.1.816.145,1.225-.071-.6,0,.085.011.23q.023.367.034.735a31.66,31.66,0,0,1-.27,5.02q-.078.613-.174,1.224c-.031.205-.064.409-.1.612q-.031.184-.064.368c-.011.061-.021.123-.033.184-.026.146-.014.081.035-.192a3.018,3.018,0,0,0-.116.612q-.06.306-.123.612-.138.675-.288,1.348c-.377,1.7-.8,3.4-1.205,5.093a66.131,66.131,0,0,0-1.9,10.618c-.061.847-.09,1.7-.081,2.546,0,.408.026.815.039,1.222.006.2.007.392-.006.586l-.01.116q-.041.31.034-.158a1.46,1.46,0,0,0-.106.323l.1-.238c-.085.123-.073.116.036-.018.251-.212-.006-.012-.051.038-.238.257.312-.174.108-.066-.077.04-.15.086-.228.124-.052.025-.379.158-.061.037s-.013,0-.07.012a5.549,5.549,0,0,1-.685.137c-.082.012-.174.013-.253.031.489-.114.153-.015,0-.01-.211.007-.422,0-.633-.008s-.423-.031-.632-.058c-.084-.011-.168-.024-.253-.036-.39-.056.423.09-.068-.017a14.738,14.738,0,0,1-2.531-.825c-.4-.167-.788-.368-1.19-.532.5.2-.062-.031-.179-.089-.195-.1-.388-.194-.58-.3a15.648,15.648,0,0,1-1.948-1.19c-.144-.105-.284-.217-.426-.327-.108-.084-.179-.221.123.106-.07-.076-.161-.142-.237-.213a7.491,7.491,0,0,1-.754-.81,1.764,1.764,0,0,0-.16-.208c.3.276.172.252.069.092s-.185-.3-.268-.455-.157-.336-.236-.5c-.114-.243.137.454.021.059-.034-.116-.073-.231-.1-.349-.106-.4-.136-.8-.214-1.194.1.528.014.158.006.016,0-.082-.008-.163-.01-.246-.008-.247-.007-.494,0-.741.045-1.853.3-3.71.472-5.554q.277-2.925.553-5.85c.134-1.414.186-2.863.415-4.263l.782-4.788c.024-.149.049-.3.073-.447a1.878,1.878,0,0,0-.49-1.359,1.888,1.888,0,0,0-2.666-.124,2.182,2.182,0,0,0-.614,1.308q-.376,2.295-.75,4.59c-.16.974-.241,1.95-.334,2.934q-.294,3.1-.586,6.2c-.187,1.978-.4,3.955-.557,5.936a11.321,11.321,0,0,0,.822,5.983,9.957,9.957,0,0,0,3.642,3.8,25.275,25.275,0,0,0,5.006,2.435,10.684,10.684,0,0,0,6.108.573,4.255,4.255,0,0,0,2.758-1.881,5.963,5.963,0,0,0,.5-3.256,33.428,33.428,0,0,1,.337-5.4c.06-.434.126-.866.2-1.3.034-.206.07-.412.106-.618.077-.44-.084.444,0,0,.024-.124.047-.247.07-.37.175-.907.37-1.811.574-2.711,1.638-7.222,4.007-14.616,2.6-22.087a8.61,8.61,0,0,0-2.12-4.52,4.951,4.951,0,0,0-2.428-1.4,5.742,5.742,0,0,0-3.5.4,10.806,10.806,0,0,0-2.45,1.571c-.783.621-1.54,1.274-2.308,1.912l-4.791,3.986-2.286,1.9a1.9,1.9,0,0,0-.125,2.667A1.929,1.929,0,0,0,5238.367,3788.064Z" transform="translate(-5232.915 -3775.39)" fill="#008c7d"></path></g><g id="Groupe_160" data-name="Groupe 160" transform="translate(0 0)"><path id="Tracé_162" data-name="Tracé 162" d="M1581.078,509.319A689.863,689.863,0,0,0,1689.4,541.806q15.588,3.31,31.327,5.906c1.993.331,3.3-1.835,3.008-3.424a31.946,31.946,0,0,1,8.539-27.914c7.388-7.493,18.182-11.229,28.787-11.893,13.013-.816,25.777,2.413,38.038,6.224,12.3,3.824,25.178,8.5,38.232,5.184,11.541-2.934,22.15-10.112,31.386-17.115a136.629,136.629,0,0,0,13.456-11.654c3.7-3.655,9.295-8.572,6.125-14.115-1.3-2.273-3.7-3.79-5.794-5.334l-8.292-6.123-7.973-5.887a62.68,62.68,0,0,1-7.435-5.738c-1.983-2-2.421-4.387-2.473-7.056-.06-3.071.024-6.15.16-9.218a174,174,0,0,1,1.9-19.045,175.82,175.82,0,0,1,4.015-18.654c1.46-5.424,2.8-11.185.2-16.5-4.015-8.236-14.771-9.717-23.243-9.3-2.3.114-4.6.341-6.879.651l3.52,2.119c-1.912-9.046,3.631-17.792,10.139-23.937,7.1-6.7,15.729-11.72,22.789-18.468,13.552-12.955,19.4-30.866,24-48.164,3.071-11.548,6-23.131,9-34.7a2.863,2.863,0,0,0-1.2-3.227c-20.064-14.111-46.5-7.184-69.091-13.207a38.564,38.564,0,0,1-14.693-7.132c-5.255-4.321-8.743-10.191-13.373-15.057-8.714-9.16-21.156-12.807-33.017-16.77-5.734-1.916-11.474-3.963-16.622-7.091-5.6-3.4-9.65-8.12-13.288-13.349-3.718-5.344-7.208-11.089-12.343-15.334-4.664-3.856-10.679-6.873-16.982-6.923a17.576,17.576,0,0,0-13.969,6.516c-2.711,3.389-3.8,7.7-4.307,11.855-1.056,8.677.945,17.785-1.268,26.325-.972,3.749-2.944,6.968-6.7,8.678-3.045,1.385-6.591,1.4-9.894,1.419a67.092,67.092,0,0,0-9.741.5c-11.289,1.7-23.254,8.5-27.191,19.213a19.959,19.959,0,0,0-1.174,8.055l1.574-2.357c-9.53,3.705-20.344,2.045-29.529-1.776-9.778-4.068-18.179-10.715-26.386-17.082-2.538-1.969-5.172,1.375-4.209,3.658a188.264,188.264,0,0,1,13.777,54.125l3.008-3.424-23.988-1.942-12.2-.987a52.527,52.527,0,0,1-10.793-1.586c-3.436-1.022-6.41-2.953-9.624-4.446a37.3,37.3,0,0,0-10.443-3.032c-7.171-1.043-14.516-.216-21.649.715-3.107.406-6.449.727-9.2,2.292a10.766,10.766,0,0,0-5.183,7.377c-1.7,7.473-2.914,15.075-4.361,22.6-.626,3.251-1.534,6.686-.5,9.952a11.631,11.631,0,0,0,5.33,6.407c6.022,3.53,12.744,2.328,19.379,1.759,13.607-1.167,23.8,7.728,32.407,16.655,10.569,10.966,20.746,22.3,30.784,33.714,4.324,4.915,8.809,9.811,12.086,15.448a30.9,30.9,0,0,1,4.013,18.684c-1.146,15.188-3.01,30.356-4.53,45.515-2.331,23.243-4.277,46.538-7.464,69.69q-.168,1.221-.336,2.442c-.493,3.582,5.389,3.823,5.879.261,2.7-19.631,4.511-39.335,6.487-59.045q2.238-22.325,4.477-44.651c.709-7.073,2.02-14.368,1.381-21.48-.563-6.258-3.18-12.058-6.76-17.276-3.824-5.574-8.442-10.616-12.936-15.7q-7.456-8.433-15.07-16.737c-4.868-5.31-9.724-10.649-14.779-15.8a76.5,76.5,0,0,0-14.417-12.017,34.719,34.719,0,0,0-17.553-5.457c-6.259-.065-13.484,2.548-19.362-.452a5.9,5.9,0,0,1-3.579-6.03c.238-3.548,1.23-7.125,1.9-10.617l2.125-11.043c.511-2.654.538-7.083,2.9-8.952,2.179-1.724,5.873-1.763,8.543-2.108,3.529-.456,7.066-.862,10.627-.975a39.006,39.006,0,0,1,20.21,4.4,37.822,37.822,0,0,0,9.851,3.868,85.573,85.573,0,0,0,10.7,1.3l23.582,1.909,11.791.955a2.9,2.9,0,0,0,3.008-3.424,192.911,192.911,0,0,0-14.3-55.491l-4.209,3.658c9.01,6.989,18.2,14.007,29.048,18.227,10.438,4.059,22.233,5,32.8.894a2.7,2.7,0,0,0,1.574-2.357c-.658-10.976,9.682-18.6,19.855-21.245,6.26-1.626,12.582-.713,18.932-1.538a18.2,18.2,0,0,0,12.908-7.427c4.983-7.3,3.931-17.041,3.9-25.318-.028-7.174-.183-17.11,7.776-20.726,5.219-2.371,11.4-.083,15.807,2.838,5.277,3.5,8.737,8.817,12.2,13.855,3.7,5.381,7.51,10.589,12.831,14.631a60.878,60.878,0,0,0,15.648,8.068c11.018,4.12,23.265,6.564,32.651,13.826,5.242,4.055,8.734,9.718,13.084,14.555a41.17,41.17,0,0,0,14.36,10.275c21.293,9.267,46.291,1.978,67.629,11.006a37.889,37.889,0,0,1,7,3.952l-1.2-3.227q-4.134,15.96-8.27,31.92c-2.339,8.963-4.817,17.94-8.484,26.506-3.552,8.3-8.379,16.192-15.122,22.5-7.276,6.811-16.157,11.871-23.223,18.9-7.571,7.531-13.235,17.733-10.977,28.416a3.016,3.016,0,0,0,3.52,2.119c6.875-.935,18.16-1.986,22.782,4.344,3.226,4.419,1.123,10.251-.127,14.958a182.545,182.545,0,0,0-3.87,18.393,173.855,173.855,0,0,0-1.924,18.667q-.2,4.124-.206,8.253c0,2.873.036,5.8,1.128,8.516,2.134,5.307,8.245,8.585,12.743,11.907q7.973,5.887,15.946,11.775c1.652,1.223,3.852,2.476,2.657,4.675-1.32,2.428-3.958,4.5-5.952,6.423a136.982,136.982,0,0,1-13.331,11.279,132.051,132.051,0,0,1-14.13,9.15c-5.187,2.909-10.655,5.5-16.641,6.459-12.785,2.05-25.572-3.957-37.521-7.381-11.777-3.375-24.066-5.767-36.408-4.632-11.944,1.1-23.934,5.678-31.88,14.511a37.6,37.6,0,0,0-9.059,31.957L1721,542.1a687.365,687.365,0,0,1-108.291-27.219q-15.038-5.109-29.806-10.9C1579.395,502.605,1577.594,507.954,1581.078,509.319Z" transform="translate(-1486.912 -149.563)" fill="#008c7d"></path></g></g></g><g id="Groupe_186" data-name="Groupe 186" transform="translate(1411.82 2077.495)"><path id="Tracé_129" data-name="Tracé 129" d="M547.065,65.444a.9.9,0,0,0,.271-.715v-.908a1.3,1.3,0,0,0-.193-.836.914.914,0,0,0-.7-.215c-.1,0-.242.009-.416.025s-.293.025-.358.025a.905.905,0,0,1-.527-.122.653.653,0,0,1-.227-.433,10.787,10.787,0,0,1-.058-1.181q-.02-.98-.019-4.621,0-.993.019-2.052V54.16a2.759,2.759,0,0,0-.043-.6.431.431,0,0,0-.159-.252.48.48,0,0,0-.14-.051,1.22,1.22,0,0,0-.228-.016q-.1,0-.445.016c-.232.012-.435.017-.609.017q-.377,0-.764-.009l-.126-.008a.592.592,0,0,0-.522.2,2.125,2.125,0,0,0-.135.979q0,.766.014,2.044t.014,1.791q0,1.085-.024,2.96t-.024,2.674v.177a3.26,3.26,0,0,0,.164,1.35.66.66,0,0,0,.609.265c.071,0,.161-.005.271-.016s.187-.017.232-.017h2.476c.052,0,.168,0,.348.009s.332.008.454.008a1.258,1.258,0,0,0,.842-.236m4.764-2.812q-.121-.105-.121-.535l.02-1.017c0-.264.041-.426.126-.488a.85.85,0,0,1,.474-.093q.416,0,.943.034c.351.023.572.034.662.034a.7.7,0,0,0,.614-.278,1.524,1.524,0,0,0,.2-.875v-.5a1.428,1.428,0,0,0-.208-.954,1.244,1.244,0,0,0-.827-.2c-.2,0-.452.008-.755.025s-.5.025-.59.025a.792.792,0,0,1-.557-.143,1.149,1.149,0,0,1-.14-.715v-.227a.863.863,0,0,1,.126-.538.567.567,0,0,1,.455-.151h.909c.1,0,.226,0,.387.008s.278.008.348.008a1.177,1.177,0,0,0,.769-.181.874.874,0,0,0,.2-.66v-.151q-.02-.471-.019-.9a.907.907,0,0,0-.223-.711,1.335,1.335,0,0,0-.832-.189,3.179,3.179,0,0,0-.319.017h-.058c-.045,0-.107,0-.183-.009s-.126-.008-.146-.008h-3.095a2.594,2.594,0,0,0-1.233.177.779.779,0,0,0-.247.673c0,.079,0,.166.01.261s.01.151.01.168v8.351q-.02.437-.092,1.114t-.072.938a.643.643,0,0,0,.241.53,1.042,1.042,0,0,0,.668.193q.27,0,.745-.034c.316-.022.538-.034.667-.034q.754,0,1.843.034t1.427.034a1.1,1.1,0,0,0,.837-.239,2.7,2.7,0,0,0,.208-1.4,2.067,2.067,0,0,0-.175-1.085.863.863,0,0,0-.7-.218h-.232q-.8.018-1.509.016a.953.953,0,0,1-.557-.1m10.249,2.329a3.6,3.6,0,0,0,1.025-2.83,3.639,3.639,0,0,0-.314-1.58,4.144,4.144,0,0,0-1.05-1.3q-.386-.328-1.035-.849Q559.4,57.355,559.4,56.9a.605.605,0,0,1,.232-.513,1.1,1.1,0,0,1,.677-.177,3.507,3.507,0,0,1,.725.109,3.51,3.51,0,0,0,.726.109.741.741,0,0,0,.556-.151,1.183,1.183,0,0,0,.131-.69V54.327q0-.781-.334-.941a7.409,7.409,0,0,0-5.044.719,3.134,3.134,0,0,0-1.112,2.619,3.829,3.829,0,0,0,.392,1.762A4.981,4.981,0,0,0,557.619,60q.261.227.764.605,1.209.9,1.209,1.48a.677.677,0,0,1-.237.576,1.279,1.279,0,0,1-.769.181,3.034,3.034,0,0,1-1.137-.214,3.322,3.322,0,0,0-.624-.214.954.954,0,0,0-.687.2.925.925,0,0,0-.2.673v.076l.02,1.3v.126a1.094,1.094,0,0,0,.082.5.6.6,0,0,0,.3.236,4.606,4.606,0,0,0,1.054.248,10.878,10.878,0,0,0,1.5.1,4.7,4.7,0,0,0,3.192-.912M582.3,46.451q1.836-8.99,1.836-9.939a.594.594,0,0,0-.349-.576,4.35,4.35,0,0,0-1.557-.172h-.441q-.489,0-1.778-.02t-2.08-.021a3.91,3.91,0,0,0-1.068.122,1.2,1.2,0,0,0-.627.383q-.767.848-1.79,13.738-.371,4.586-.6,7.273h-.6q-.651-9.151-1.185-14.546a45.568,45.568,0,0,0-.86-6.323.888.888,0,0,0-.489-.495,2.915,2.915,0,0,0-1.092-.152h-4.764a3.934,3.934,0,0,0-1.639.223.859.859,0,0,0-.407.828q0,.162.535,2.687t1,4.828q.558,2.99,1.742,8.05t1.581,7.182q.115.708.325,1.94.65,4.06,2,4.06c.093,0,.306-.006.639-.02s.616-.021.848-.021q.279,0,.825.041t.825.041q.115,0,1.011-.041t1.661-.041a6.039,6.039,0,0,1,.744.061,6.029,6.029,0,0,0,.651.06q1.58,0,2.394-5.03.419-2.626.744-4.283.743-3.818,1.975-9.838m11.038,5.182q.07-5.726.07-10.232V38.916a12.216,12.216,0,0,0-.1-1.96,1.329,1.329,0,0,0-.361-.768,1.713,1.713,0,0,0-.755-.313,10.5,10.5,0,0,0-1.569-.111h-2.208a4.363,4.363,0,0,0-2.312.363,1.977,1.977,0,0,0-.43,1.515v.4q.093,2,.093,3.98,0,9.233-.163,18.627-.047,1.818-.046,2.182,0,1.879.511,2.3a4.844,4.844,0,0,0,2.6.425h1.651a4.158,4.158,0,0,0,2.544-.485,2.783,2.783,0,0,0,.5-1.959q0-.95-.046-2.455t-.047-2.091q0-1.212.069-6.939m15.873-3.868a2.832,2.832,0,0,1-.721,2.02,2.519,2.519,0,0,1-1.929.768,2.433,2.433,0,0,1-1.824-.525q-.476-.525-.476-2.909,0-.767-.047-1.747t-.046-1.2A2.323,2.323,0,0,1,604.7,42.5a2.129,2.129,0,0,1,1.6-.555,2.47,2.47,0,0,1,2.289,1q.616,1,.616,4.818m8.273,17.566a.978.978,0,0,0,.441-.838,1.089,1.089,0,0,0-.058-.324,3.45,3.45,0,0,0-.174-.424l-4.323-8.606a5.144,5.144,0,0,0,2.742-2.919,18.239,18.239,0,0,0,.814-6.313q0-5.555-1.976-7.909t-6.692-2.353q-1.046,0-2.8.06t-2.429.06q-.441,0-1.673-.041t-2.045-.04a3.141,3.141,0,0,0-2.057.495,2.907,2.907,0,0,0-.546,2.111V62.875a4.137,4.137,0,0,0,.372,2.242,1.906,1.906,0,0,0,1.488.445h4.229a1.582,1.582,0,0,0,1.2-.4,1.833,1.833,0,0,0,.383-1.293V55.137h.837l3.671,8.222q.093.223.279.647a2.106,2.106,0,0,0,2,1.556H615.2a4.966,4.966,0,0,1,.558.041,5.008,5.008,0,0,0,.511.041,2.057,2.057,0,0,0,1.209-.313m14.106-12.677a.983.983,0,0,1-.4.9,2.51,2.51,0,0,1-1.3.253,3.282,3.282,0,0,1-1.36-.232.711.711,0,0,1-.5-.636l.232-1.394,1.325-8.4.4-.041,1.51,8.627q.07.444.082.616c.008.115.012.219.012.313m8.25,12.475a1.343,1.343,0,0,0,.6-1.141,13.352,13.352,0,0,0-.627-3.131q-.628-2.2-.837-3.233-.511-2.363-1.115-5.9t-.883-4.647q-.558-2.141-1.348-5.474a32.528,32.528,0,0,0-1.51-5.333,1.215,1.215,0,0,0-.6-.394,4.912,4.912,0,0,0-1.255-.111H626.4q-1.372,0-2.092,3.455v.02q-.348,1.9-1.081,5.414t-1.638,7.6a15.167,15.167,0,0,0-.21,1.646,11.8,11.8,0,0,1-.209,1.566l-1.487,6.02q-.07.283-.233.869a9.535,9.535,0,0,0-.372,2.02,1.017,1.017,0,0,0,.418.909,2.522,2.522,0,0,0,1.371.283h4.392a2.381,2.381,0,0,0,1.755-.505,2.973,2.973,0,0,0,.476-1.98q0-.223-.023-.7t-.023-.757a1.047,1.047,0,0,1,.732-.93,4.751,4.751,0,0,1,1.987-.343,2.468,2.468,0,0,1,1.371.313,1.828,1.828,0,0,1,.674,1.1,8.075,8.075,0,0,1,.2,1.363,8.622,8.622,0,0,0,.221,1.465,1.371,1.371,0,0,0,.558.686,1.548,1.548,0,0,0,.883.283h4.183a2.646,2.646,0,0,0,1.58-.434M653.244,53.4q0,3.9-.511,4.949A1.962,1.962,0,0,1,650.78,59.4a1.622,1.622,0,0,1-1.3-.445,2.343,2.343,0,0,1-.372-1.5c0-.107.008-.252.023-.434s.023-.313.023-.394l-.047-9.616q0-.242-.047-1.232t-.046-1.738a1.581,1.581,0,0,1,.348-1.141,1.513,1.513,0,0,1,1.115-.353,2.162,2.162,0,0,1,2.2,1.343q.57,1.344.57,6.939Zm6.03,9.01q2.15-3.231,2.15-9.959,0-9.313-2.347-12.98T651.106,35.8h-.186l-3.578.06q-.907,0-1.964-.03t-1.22-.03a3.575,3.575,0,0,0-2.01.434,1.6,1.6,0,0,0-.616,1.4q0,.1.046.869.209,5.232.21,10.868,0,5.616-.139,11.111-.024.93-.023,1.091v.384q0,2.626.453,3.171a2.442,2.442,0,0,0,1.894.546q1.766,0,3.555-.06c.248-.014.4-.02.442-.02l3.137-.041c.108,0,.333.013.673.041s.628.041.86.041a7.408,7.408,0,0,0,6.634-3.233m13.06-4.131q-.291-.253-.29-1.283l.046-2.444q0-.949.3-1.172a2.058,2.058,0,0,1,1.139-.222q1,0,2.266.081t1.591.08a1.691,1.691,0,0,0,1.476-.667,3.661,3.661,0,0,0,.476-2.1V49.339a3.432,3.432,0,0,0-.5-2.293,2.985,2.985,0,0,0-1.987-.475q-.721,0-1.813.061t-1.418.06a1.9,1.9,0,0,1-1.336-.344,2.757,2.757,0,0,1-.337-1.717v-.546a2.071,2.071,0,0,1,.3-1.292,1.362,1.362,0,0,1,1.092-.364h2.184q.348,0,.929.021t.837.02a2.836,2.836,0,0,0,1.848-.434,2.1,2.1,0,0,0,.476-1.586v-.363q-.047-1.132-.047-2.162a2.176,2.176,0,0,0-.534-1.707,3.2,3.2,0,0,0-2-.455q-.348,0-.767.041h-.139q-.163,0-.442-.021c-.186-.013-.3-.02-.348-.02h-7.436a6.234,6.234,0,0,0-2.963.424,1.873,1.873,0,0,0-.593,1.617q0,.282.023.626c.015.229.023.363.023.4V58.9q-.048,1.05-.221,2.676T664,63.824a1.541,1.541,0,0,0,.581,1.273,2.5,2.5,0,0,0,1.6.464q.65,0,1.789-.081t1.6-.08q1.812,0,4.427.08t3.427.081a2.642,2.642,0,0,0,2.01-.576q.5-.576.5-3.363a4.967,4.967,0,0,0-.419-2.606,2.08,2.08,0,0,0-1.673-.525H677.3q-1.929.04-3.625.041a2.282,2.282,0,0,1-1.336-.253m24.622,5.6q2.463-2.192,2.463-6.8a8.735,8.735,0,0,0-.755-3.8,9.927,9.927,0,0,0-2.522-3.111q-.93-.788-2.486-2.041-3.137-2.525-3.137-3.616a1.454,1.454,0,0,1,.558-1.233,2.651,2.651,0,0,1,1.626-.424,8.416,8.416,0,0,1,1.743.262,8.414,8.414,0,0,0,1.743.262,1.779,1.779,0,0,0,1.337-.363,2.836,2.836,0,0,0,.313-1.657V38.33q0-1.879-.8-2.263a12.68,12.68,0,0,0-4.1-.383q-5.345,0-8.017,2.111a7.531,7.531,0,0,0-2.672,6.293,9.193,9.193,0,0,0,.941,4.233,11.976,11.976,0,0,0,3.056,3.626q.628.545,1.836,1.455,2.9,2.161,2.9,3.555a1.629,1.629,0,0,1-.569,1.384,3.079,3.079,0,0,1-1.848.434,7.3,7.3,0,0,1-2.731-.515,7.948,7.948,0,0,0-1.5-.515,2.292,2.292,0,0,0-1.65.485,2.221,2.221,0,0,0-.488,1.616v.181l.047,3.131v.3a2.628,2.628,0,0,0,.2,1.212,1.442,1.442,0,0,0,.709.566,11.024,11.024,0,0,0,2.533.6,25.957,25.957,0,0,0,3.6.232q5.206,0,7.669-2.192M707.4,60.433a5.964,5.964,0,0,1-.213,2.06.816.816,0,0,1-.812.437.674.674,0,0,1-.541-.185.971.971,0,0,1-.155-.623c0-.045,0-.105.01-.181s.01-.13.01-.164l-.019-4c0-.067-.006-.238-.019-.513s-.019-.516-.019-.724a.657.657,0,0,1,.145-.475.63.63,0,0,1,.464-.147.9.9,0,0,1,.914.559,10.075,10.075,0,0,1,.237,2.889Zm2.51,3.75a7.607,7.607,0,0,0,.9-4.146q0-3.876-.977-5.4a3.635,3.635,0,0,0-3.318-1.526h-.078l-1.49.025q-.377,0-.817-.013c-.293-.008-.463-.012-.508-.012a1.491,1.491,0,0,0-.837.181.665.665,0,0,0-.256.585c0,.028.006.148.019.361q.088,2.178.087,4.524t-.058,4.625c-.006.258-.01.41-.01.454V64a2.643,2.643,0,0,0,.189,1.321,1.017,1.017,0,0,0,.788.227q.735,0,1.48-.025l.184-.008,1.306-.016q.068,0,.28.016c.142.012.261.017.358.017a3.085,3.085,0,0,0,2.761-1.345m5.437-1.72q-.121-.105-.121-.534l.019-1.018q0-.395.126-.488a.86.86,0,0,1,.474-.092q.415,0,.943.034c.351.022.572.034.662.034a.705.705,0,0,0,.614-.278,1.526,1.526,0,0,0,.2-.875v-.5a1.431,1.431,0,0,0-.208-.954,1.241,1.241,0,0,0-.827-.2q-.3,0-.754.025t-.59.025a.791.791,0,0,1-.556-.143,1.148,1.148,0,0,1-.14-.715v-.227a.861.861,0,0,1,.126-.538.566.566,0,0,1,.454-.152h.91c.1,0,.225,0,.387.008s.277.009.348.009a1.183,1.183,0,0,0,.769-.181.876.876,0,0,0,.2-.66v-.151q-.02-.471-.019-.9a.905.905,0,0,0-.223-.71,1.328,1.328,0,0,0-.831-.189q-.145,0-.32.016h-.058c-.045,0-.107,0-.184-.008s-.126-.008-.145-.008h-3.1a2.588,2.588,0,0,0-1.233.177.779.779,0,0,0-.247.673c0,.078,0,.165.01.26s.01.151.01.168v8.35q-.019.438-.091,1.115t-.073.937a.64.64,0,0,0,.242.53,1.04,1.04,0,0,0,.667.194q.271,0,.745-.034t.668-.034q.754,0,1.843.034t1.426.034a1.1,1.1,0,0,0,.837-.24,2.711,2.711,0,0,0,.208-1.4,2.067,2.067,0,0,0-.174-1.084.866.866,0,0,0-.7-.219h-.232q-.8.016-1.51.017a.948.948,0,0,1-.556-.105" transform="translate(-541.668 -35.643)" fill="#008c7d"></path><path id="Tracé_130" data-name="Tracé 130" d="M570.105,116.5q-.22,2.051-.22,2.841a1.942,1.942,0,0,0,.732,1.6,3.15,3.15,0,0,0,2.021.587q.82,0,2.256-.1t2.022-.1q2.285,0,5.582.1t4.322.1a3.326,3.326,0,0,0,2.534-.727q.631-.725.63-4.241,0-2.624-.527-3.286a2.622,2.622,0,0,0-2.11-.661h-.7q-2.432.049-4.571.05a2.876,2.876,0,0,1-1.685-.318q-.367-.317-.366-1.618l.058-3.083c0-.8.127-1.29.381-1.477a2.59,2.59,0,0,1,1.435-.281q1.259,0,2.857.1t2.007.1a2.133,2.133,0,0,0,1.861-.84,4.614,4.614,0,0,0,.6-2.65v-1.528q0-2.293-.63-2.891a3.764,3.764,0,0,0-2.505-.6q-.909,0-2.286.076t-1.787.077a2.4,2.4,0,0,1-1.685-.433,3.476,3.476,0,0,1-.425-2.165v-.689a2.612,2.612,0,0,1,.381-1.631,1.721,1.721,0,0,1,1.377-.458h2.755q.439,0,1.172.025c.488.018.84.025,1.055.025a3.574,3.574,0,0,0,2.329-.548,2.647,2.647,0,0,0,.6-2v-.458q-.059-1.426-.058-2.726a2.745,2.745,0,0,0-.674-2.153,4.031,4.031,0,0,0-2.52-.573c-.293,0-.616.018-.967.051h-.175c-.137,0-.323-.008-.557-.025s-.381-.025-.439-.025h-9.377q-2.989,0-3.736.535a2.36,2.36,0,0,0-.748,2.038q0,.357.03.789c.019.289.029.459.029.51v25.294q-.06,1.325-.278,3.375m-13.962-3.732q-.469,0-1.26.077t-1.084.076a2.762,2.762,0,0,1-1.6-.368,1.987,1.987,0,0,1-.688-1.312,32.887,32.887,0,0,1-.176-3.579q-.059-2.967-.058-14,0-3.005.058-6.216V86.68a8.328,8.328,0,0,0-.132-1.809,1.3,1.3,0,0,0-.483-.763,1.423,1.423,0,0,0-.425-.154,3.656,3.656,0,0,0-.688-.05q-.294,0-1.348.05T546.415,84q-1.143,0-2.315-.025c-.216-.016-.342-.025-.381-.025a1.8,1.8,0,0,0-1.583.6,6.462,6.462,0,0,0-.41,2.968q0,2.319.044,6.19t.044,5.425q0,3.287-.073,8.968t-.074,8.1v.535q0,3.286.5,4.088a2,2,0,0,0,1.846.8q.322,0,.82-.051c.332-.034.566-.05.7-.05h7.5c.157,0,.508.008,1.055.025s1.006.025,1.377.025a3.819,3.819,0,0,0,2.549-.713,2.718,2.718,0,0,0,.82-2.165v-2.752a3.927,3.927,0,0,0-.586-2.534,2.766,2.766,0,0,0-2.109-.65m9.772-26.67a1.933,1.933,0,0,0-.44-1.453,2.344,2.344,0,0,0-1.582-.407h-5.362a3.087,3.087,0,0,0-1.744.357,1.454,1.454,0,0,0-.483,1.248v5.783a1.955,1.955,0,0,0,.439,1.528,3.652,3.652,0,0,0,2.022.357h.967q-.615,1.2-1.509,2.6a6.643,6.643,0,0,0-.894,1.631.518.518,0,0,0,.278.471,1.592,1.592,0,0,0,.806.166h2.461a2.739,2.739,0,0,0,1.07-.192,1.478,1.478,0,0,0,.689-.548l2.461-3.821q.059-.1.176-.28a2.863,2.863,0,0,0,.645-1.629Zm41.051-2.242q-6.74,0-10.109,2.662t-3.37,7.935a11.6,11.6,0,0,0,1.187,5.338,15.093,15.093,0,0,0,3.853,4.571q.791.687,2.315,1.835,3.662,2.726,3.662,4.483a2.051,2.051,0,0,1-.718,1.744,3.882,3.882,0,0,1-2.329.548,9.2,9.2,0,0,1-3.443-.649,10.073,10.073,0,0,0-1.89-.65,2.888,2.888,0,0,0-2.081.612,2.8,2.8,0,0,0-.616,2.037v.229l.059,3.949v.381a3.32,3.32,0,0,0,.249,1.53,1.814,1.814,0,0,0,.894.713,13.864,13.864,0,0,0,3.194.752,32.8,32.8,0,0,0,4.542.293q6.563,0,9.67-2.765t3.106-8.572a11,11,0,0,0-.952-4.789,12.528,12.528,0,0,0-3.179-3.923q-1.172-.994-3.135-2.573-3.956-3.184-3.956-4.56a1.832,1.832,0,0,1,.7-1.553,3.34,3.34,0,0,1,2.051-.535,10.639,10.639,0,0,1,2.2.331,10.627,10.627,0,0,0,2.2.331,2.24,2.24,0,0,0,1.685-.458,3.567,3.567,0,0,0,.4-2.089v-3.82q0-2.369-1.011-2.853t-5.172-.484m28.819,14.036q0,3.337-.776,4.509a3.006,3.006,0,0,1-2.711,1.172,3.813,3.813,0,0,1-1.582-.293,1.216,1.216,0,0,1-.762-.752,23.384,23.384,0,0,1-.205-2.79q-.088-2.228-.088-5.133a3.673,3.673,0,0,1,.63-2.381,2.477,2.477,0,0,1,2.007-.752,2.83,2.83,0,0,1,2.7,1.426,11.16,11.16,0,0,1,.791,4.993m9.963-.459q0-7.055-3-10.418t-9.3-3.363q-5.773,0-10.167.306h-.264a2.366,2.366,0,0,0-1.729.727,3.014,3.014,0,0,0-.557,2c0,.137.018.535.058,1.2q.234,4.562.234,8.865,0,3.491-.117,9.26t-.117,8.011q0,1.224.029,2.624t.03,1.554c0,.085-.01.315-.03.688s-.029.7-.029.968a1.9,1.9,0,0,0,.41,1.35,1.7,1.7,0,0,0,1.289.433q.44,0,1.524-.126a15.291,15.291,0,0,1,1.7-.128q.469,0,1.231.077t1.055.077a2.56,2.56,0,0,0,1.714-.459,1.968,1.968,0,0,0,.513-1.528c0-.067-.02-.306-.059-.714q-.175-2.522-.176-4.865a2.08,2.08,0,0,1,.6-1.72,3.894,3.894,0,0,1,2.271-.471q.175,0,.571.025c.264.017.454.025.572.025a10.49,10.49,0,0,0,8.526-3.923q3.224-3.924,3.223-10.47m20.7,7.566q0,5.528-.673,6.827a2.6,2.6,0,0,1-2.55,1.3,2.143,2.143,0,0,1-2.065-1.044,9.212,9.212,0,0,1-.572-3.948V97.735a9.85,9.85,0,0,1,.674-4.356,2.422,2.422,0,0,1,2.315-1.222,2.451,2.451,0,0,1,2.11,1.07,5.019,5.019,0,0,1,.761,2.955v8.814Zm-2.08-21.7a18.8,18.8,0,0,0-7.487,1.338,9.7,9.7,0,0,0-4.644,3.934,14.6,14.6,0,0,0-1.8,4.956,58.211,58.211,0,0,0-.542,9.539q0,10.649,2.93,14.877t9.9,4.229a17.975,17.975,0,0,0,8.059-1.644,9.911,9.911,0,0,0,4.747-4.673,17.33,17.33,0,0,0,1.246-5.07q.366-3.133.366-11.105V97.99q0-7.692-3.062-11.195t-9.714-3.5m20.32.662a5.517,5.517,0,0,0-2.915.458,2.493,2.493,0,0,0-.542,1.911v.509q.117,2.522.117,5.019,0,11.641-.205,23.486-.059,2.293-.058,2.751,0,2.37.645,2.9t3.282.536h2.081q2.579,0,3.209-.612a3.513,3.513,0,0,0,.63-2.471q0-1.2-.059-3.094t-.058-2.637q0-1.528.088-8.75t.088-12.9V87.927a15.364,15.364,0,0,0-.132-2.47,1.673,1.673,0,0,0-.454-.968,2.158,2.158,0,0,0-.952-.4,13.428,13.428,0,0,0-1.978-.14Zm26.826,15.131a3.574,3.574,0,0,1-.908,2.548,3.177,3.177,0,0,1-2.432.967,3.064,3.064,0,0,1-2.3-.662q-.6-.662-.6-3.668,0-.968-.059-2.2t-.058-1.516a2.921,2.921,0,0,1,.674-2.1,2.677,2.677,0,0,1,2.021-.7,3.116,3.116,0,0,1,2.887,1.261q.776,1.262.776,6.076M722.5,120.177a1.353,1.353,0,0,0-.073-.407,4.255,4.255,0,0,0-.22-.536l-5.45-10.852a6.492,6.492,0,0,0,3.458-3.68,23.018,23.018,0,0,0,1.025-7.961q0-7-2.491-9.972T710.314,83.8q-1.319,0-3.531.077t-3.062.076q-.557,0-2.109-.05t-2.579-.052a3.962,3.962,0,0,0-2.593.625,3.666,3.666,0,0,0-.689,2.662v31a5.208,5.208,0,0,0,.469,2.828,2.4,2.4,0,0,0,1.876.561h5.333a1.992,1.992,0,0,0,1.509-.511,2.31,2.31,0,0,0,.484-1.63v-11h1.055l4.63,10.368q.116.28.352.816a2.655,2.655,0,0,0,2.52,1.962h5.1a6.291,6.291,0,0,1,.7.05,6.33,6.33,0,0,0,.645.051,2.585,2.585,0,0,0,1.524-.4,1.233,1.233,0,0,0,.556-1.057" transform="translate(-541.668 -50.551)" fill="#008c7d"></path></g></g></svg> 